<?xml version="1.0" encoding="utf-8" standalone="no"?>
<!DOCTYPE svg PUBLIC "-//W3C//DTD SVG 1.1//EN"
  "http://www.w3.org/Graphics/SVG/1.1/DTD/svg11.dtd">
<!-- Created with matplotlib (https://matplotlib.org/) -->
<svg height="360pt" version="1.1" viewBox="0 0 1800 360" width="1800pt" xmlns="http://www.w3.org/2000/svg" xmlns:xlink="http://www.w3.org/1999/xlink">
 <defs>
  <style type="text/css">
*{stroke-linecap:butt;stroke-linejoin:round;}
  </style>
 </defs>
 <g id="figure_1">
  <g id="patch_1">
   <path d="M 0 360 
L 1800 360 
L 1800 0 
L 0 0 
z
" style="fill:#ffffff;"/>
  </g>
  <g id="axes_1">
   <g id="patch_2">
    <path d="M 225 315 
L 1620 315 
L 1620 43.2 
L 225 43.2 
z
" style="fill:#eaeaf2;"/>
   </g>
   <g id="matplotlib.axis_1">
    <g id="xtick_1">
     <g id="line2d_1">
      <path clip-path="url(#p233c08fd7e)" d="M 225 315 
L 225 43.2 
" style="fill:none;stroke:#ffffff;stroke-linecap:round;"/>
     </g>
     <g id="text_1">
      <!-- F1@10 -->
      <defs>
       <path d="M 9.8125 72.90625 
L 51.703125 72.90625 
L 51.703125 64.59375 
L 19.671875 64.59375 
L 19.671875 43.109375 
L 48.578125 43.109375 
L 48.578125 34.8125 
L 19.671875 34.8125 
L 19.671875 0 
L 9.8125 0 
z
" id="DejaVuSans-70"/>
       <path d="M 12.40625 8.296875 
L 28.515625 8.296875 
L 28.515625 63.921875 
L 10.984375 60.40625 
L 10.984375 69.390625 
L 28.421875 72.90625 
L 38.28125 72.90625 
L 38.28125 8.296875 
L 54.390625 8.296875 
L 54.390625 0 
L 12.40625 0 
z
" id="DejaVuSans-49"/>
       <path d="M 37.203125 26.21875 
Q 37.203125 19.234375 40.671875 15.25 
Q 44.140625 11.28125 50.203125 11.28125 
Q 56.203125 11.28125 59.640625 15.28125 
Q 63.09375 19.28125 63.09375 26.21875 
Q 63.09375 33.0625 59.578125 37.078125 
Q 56.0625 41.109375 50.09375 41.109375 
Q 44.1875 41.109375 40.6875 37.109375 
Q 37.203125 33.109375 37.203125 26.21875 
z
M 63.8125 11.625 
Q 60.890625 7.859375 57.109375 6.078125 
Q 53.328125 4.296875 48.296875 4.296875 
Q 39.890625 4.296875 34.640625 10.375 
Q 29.390625 16.453125 29.390625 26.21875 
Q 29.390625 35.984375 34.65625 42.078125 
Q 39.9375 48.1875 48.296875 48.1875 
Q 53.328125 48.1875 57.125 46.359375 
Q 60.9375 44.53125 63.8125 40.828125 
L 63.8125 47.21875 
L 70.796875 47.21875 
L 70.796875 11.28125 
Q 77.9375 12.359375 81.953125 17.796875 
Q 85.984375 23.25 85.984375 31.890625 
Q 85.984375 37.109375 84.4375 41.703125 
Q 82.90625 46.296875 79.78125 50.203125 
Q 74.703125 56.59375 67.40625 59.984375 
Q 60.109375 63.375 51.515625 63.375 
Q 45.515625 63.375 39.984375 61.78125 
Q 34.46875 60.203125 29.78125 57.078125 
Q 22.125 52.09375 17.796875 44.015625 
Q 13.484375 35.9375 13.484375 26.515625 
Q 13.484375 18.75 16.28125 11.953125 
Q 19.09375 5.171875 24.421875 0 
Q 29.546875 -5.078125 36.28125 -7.734375 
Q 43.015625 -10.40625 50.6875 -10.40625 
Q 56.984375 -10.40625 63.0625 -8.28125 
Q 69.140625 -6.15625 74.21875 -2.203125 
L 78.609375 -7.625 
Q 72.515625 -12.359375 65.3125 -14.875 
Q 58.109375 -17.390625 50.6875 -17.390625 
Q 41.65625 -17.390625 33.640625 -14.1875 
Q 25.640625 -10.984375 19.390625 -4.890625 
Q 13.140625 1.21875 9.859375 9.25 
Q 6.59375 17.28125 6.59375 26.515625 
Q 6.59375 35.40625 9.90625 43.453125 
Q 13.234375 51.515625 19.390625 57.625 
Q 25.6875 63.8125 33.9375 67.109375 
Q 42.1875 70.40625 51.421875 70.40625 
Q 61.765625 70.40625 70.625 66.15625 
Q 79.5 61.921875 85.5 54.109375 
Q 89.15625 49.3125 91.078125 43.703125 
Q 93.015625 38.09375 93.015625 32.078125 
Q 93.015625 19.234375 85.25 11.8125 
Q 77.484375 4.390625 63.8125 4.109375 
z
" id="DejaVuSans-64"/>
       <path d="M 31.78125 66.40625 
Q 24.171875 66.40625 20.328125 58.90625 
Q 16.5 51.421875 16.5 36.375 
Q 16.5 21.390625 20.328125 13.890625 
Q 24.171875 6.390625 31.78125 6.390625 
Q 39.453125 6.390625 43.28125 13.890625 
Q 47.125 21.390625 47.125 36.375 
Q 47.125 51.421875 43.28125 58.90625 
Q 39.453125 66.40625 31.78125 66.40625 
z
M 31.78125 74.21875 
Q 44.046875 74.21875 50.515625 64.515625 
Q 56.984375 54.828125 56.984375 36.375 
Q 56.984375 17.96875 50.515625 8.265625 
Q 44.046875 -1.421875 31.78125 -1.421875 
Q 19.53125 -1.421875 13.0625 8.265625 
Q 6.59375 17.96875 6.59375 36.375 
Q 6.59375 54.828125 13.0625 64.515625 
Q 19.53125 74.21875 31.78125 74.21875 
z
" id="DejaVuSans-48"/>
      </defs>
      <g style="fill:#262626;" transform="translate(205.838516 332.858281)scale(0.11 -0.11)">
       <use xlink:href="#DejaVuSans-70"/>
       <use x="57.519531" xlink:href="#DejaVuSans-49"/>
       <use x="121.142578" xlink:href="#DejaVuSans-64"/>
       <use x="221.142578" xlink:href="#DejaVuSans-49"/>
       <use x="284.765625" xlink:href="#DejaVuSans-48"/>
      </g>
     </g>
    </g>
    <g id="xtick_2">
     <g id="line2d_2">
      <path clip-path="url(#p233c08fd7e)" d="M 307.058824 315 
L 307.058824 43.2 
" style="fill:none;stroke:#ffffff;stroke-linecap:round;"/>
     </g>
     <g id="text_2">
      <!-- F1@20 -->
      <defs>
       <path d="M 19.1875 8.296875 
L 53.609375 8.296875 
L 53.609375 0 
L 7.328125 0 
L 7.328125 8.296875 
Q 12.9375 14.109375 22.625 23.890625 
Q 32.328125 33.6875 34.8125 36.53125 
Q 39.546875 41.84375 41.421875 45.53125 
Q 43.3125 49.21875 43.3125 52.78125 
Q 43.3125 58.59375 39.234375 62.25 
Q 35.15625 65.921875 28.609375 65.921875 
Q 23.96875 65.921875 18.8125 64.3125 
Q 13.671875 62.703125 7.8125 59.421875 
L 7.8125 69.390625 
Q 13.765625 71.78125 18.9375 73 
Q 24.125 74.21875 28.421875 74.21875 
Q 39.75 74.21875 46.484375 68.546875 
Q 53.21875 62.890625 53.21875 53.421875 
Q 53.21875 48.921875 51.53125 44.890625 
Q 49.859375 40.875 45.40625 35.40625 
Q 44.1875 33.984375 37.640625 27.21875 
Q 31.109375 20.453125 19.1875 8.296875 
z
" id="DejaVuSans-50"/>
      </defs>
      <g style="fill:#262626;" transform="translate(287.897339 332.858281)scale(0.11 -0.11)">
       <use xlink:href="#DejaVuSans-70"/>
       <use x="57.519531" xlink:href="#DejaVuSans-49"/>
       <use x="121.142578" xlink:href="#DejaVuSans-64"/>
       <use x="221.142578" xlink:href="#DejaVuSans-50"/>
       <use x="284.765625" xlink:href="#DejaVuSans-48"/>
      </g>
     </g>
    </g>
    <g id="xtick_3">
     <g id="line2d_3">
      <path clip-path="url(#p233c08fd7e)" d="M 389.117647 315 
L 389.117647 43.2 
" style="fill:none;stroke:#ffffff;stroke-linecap:round;"/>
     </g>
     <g id="text_3">
      <!-- F1@5 -->
      <defs>
       <path d="M 10.796875 72.90625 
L 49.515625 72.90625 
L 49.515625 64.59375 
L 19.828125 64.59375 
L 19.828125 46.734375 
Q 21.96875 47.46875 24.109375 47.828125 
Q 26.265625 48.1875 28.421875 48.1875 
Q 40.625 48.1875 47.75 41.5 
Q 54.890625 34.8125 54.890625 23.390625 
Q 54.890625 11.625 47.5625 5.09375 
Q 40.234375 -1.421875 26.90625 -1.421875 
Q 22.3125 -1.421875 17.546875 -0.640625 
Q 12.796875 0.140625 7.71875 1.703125 
L 7.71875 11.625 
Q 12.109375 9.234375 16.796875 8.0625 
Q 21.484375 6.890625 26.703125 6.890625 
Q 35.15625 6.890625 40.078125 11.328125 
Q 45.015625 15.765625 45.015625 23.390625 
Q 45.015625 31 40.078125 35.4375 
Q 35.15625 39.890625 26.703125 39.890625 
Q 22.75 39.890625 18.8125 39.015625 
Q 14.890625 38.140625 10.796875 36.28125 
z
" id="DejaVuSans-53"/>
      </defs>
      <g style="fill:#262626;" transform="translate(373.455538 332.858281)scale(0.11 -0.11)">
       <use xlink:href="#DejaVuSans-70"/>
       <use x="57.519531" xlink:href="#DejaVuSans-49"/>
       <use x="121.142578" xlink:href="#DejaVuSans-64"/>
       <use x="221.142578" xlink:href="#DejaVuSans-53"/>
      </g>
     </g>
    </g>
    <g id="xtick_4">
     <g id="line2d_4">
      <path clip-path="url(#p233c08fd7e)" d="M 471.176471 315 
L 471.176471 43.2 
" style="fill:none;stroke:#ffffff;stroke-linecap:round;"/>
     </g>
     <g id="text_4">
      <!-- F1@50 -->
      <g style="fill:#262626;" transform="translate(452.014986 332.858281)scale(0.11 -0.11)">
       <use xlink:href="#DejaVuSans-70"/>
       <use x="57.519531" xlink:href="#DejaVuSans-49"/>
       <use x="121.142578" xlink:href="#DejaVuSans-64"/>
       <use x="221.142578" xlink:href="#DejaVuSans-53"/>
       <use x="284.765625" xlink:href="#DejaVuSans-48"/>
      </g>
     </g>
    </g>
    <g id="xtick_5">
     <g id="line2d_5">
      <path clip-path="url(#p233c08fd7e)" d="M 553.235294 315 
L 553.235294 43.2 
" style="fill:none;stroke:#ffffff;stroke-linecap:round;"/>
     </g>
     <g id="text_5">
      <!-- MAP -->
      <defs>
       <path d="M 9.8125 72.90625 
L 24.515625 72.90625 
L 43.109375 23.296875 
L 61.8125 72.90625 
L 76.515625 72.90625 
L 76.515625 0 
L 66.890625 0 
L 66.890625 64.015625 
L 48.09375 14.015625 
L 38.1875 14.015625 
L 19.390625 64.015625 
L 19.390625 0 
L 9.8125 0 
z
" id="DejaVuSans-77"/>
       <path d="M 34.1875 63.1875 
L 20.796875 26.90625 
L 47.609375 26.90625 
z
M 28.609375 72.90625 
L 39.796875 72.90625 
L 67.578125 0 
L 57.328125 0 
L 50.6875 18.703125 
L 17.828125 18.703125 
L 11.1875 0 
L 0.78125 0 
z
" id="DejaVuSans-65"/>
       <path d="M 19.671875 64.796875 
L 19.671875 37.40625 
L 32.078125 37.40625 
Q 38.96875 37.40625 42.71875 40.96875 
Q 46.484375 44.53125 46.484375 51.125 
Q 46.484375 57.671875 42.71875 61.234375 
Q 38.96875 64.796875 32.078125 64.796875 
z
M 9.8125 72.90625 
L 32.078125 72.90625 
Q 44.34375 72.90625 50.609375 67.359375 
Q 56.890625 61.8125 56.890625 51.125 
Q 56.890625 40.328125 50.609375 34.8125 
Q 44.34375 29.296875 32.078125 29.296875 
L 19.671875 29.296875 
L 19.671875 0 
L 9.8125 0 
z
" id="DejaVuSans-80"/>
      </defs>
      <g style="fill:#262626;" transform="translate(541.411153 332.858281)scale(0.11 -0.11)">
       <use xlink:href="#DejaVuSans-77"/>
       <use x="86.279297" xlink:href="#DejaVuSans-65"/>
       <use x="154.6875" xlink:href="#DejaVuSans-80"/>
      </g>
     </g>
    </g>
    <g id="xtick_6">
     <g id="line2d_6">
      <path clip-path="url(#p233c08fd7e)" d="M 635.294118 315 
L 635.294118 43.2 
" style="fill:none;stroke:#ffffff;stroke-linecap:round;"/>
     </g>
     <g id="text_6">
      <!-- MRR -->
      <defs>
       <path d="M 44.390625 34.1875 
Q 47.5625 33.109375 50.5625 29.59375 
Q 53.5625 26.078125 56.59375 19.921875 
L 66.609375 0 
L 56 0 
L 46.6875 18.703125 
Q 43.0625 26.03125 39.671875 28.421875 
Q 36.28125 30.8125 30.421875 30.8125 
L 19.671875 30.8125 
L 19.671875 0 
L 9.8125 0 
L 9.8125 72.90625 
L 32.078125 72.90625 
Q 44.578125 72.90625 50.734375 67.671875 
Q 56.890625 62.453125 56.890625 51.90625 
Q 56.890625 45.015625 53.6875 40.46875 
Q 50.484375 35.9375 44.390625 34.1875 
z
M 19.671875 64.796875 
L 19.671875 38.921875 
L 32.078125 38.921875 
Q 39.203125 38.921875 42.84375 42.21875 
Q 46.484375 45.515625 46.484375 51.90625 
Q 46.484375 58.296875 42.84375 61.546875 
Q 39.203125 64.796875 32.078125 64.796875 
z
" id="DejaVuSans-82"/>
      </defs>
      <g style="fill:#262626;" transform="translate(622.905368 332.858281)scale(0.11 -0.11)">
       <use xlink:href="#DejaVuSans-77"/>
       <use x="86.279297" xlink:href="#DejaVuSans-82"/>
       <use x="155.761719" xlink:href="#DejaVuSans-82"/>
      </g>
     </g>
    </g>
    <g id="xtick_7">
     <g id="line2d_7">
      <path clip-path="url(#p233c08fd7e)" d="M 717.352941 315 
L 717.352941 43.2 
" style="fill:none;stroke:#ffffff;stroke-linecap:round;"/>
     </g>
     <g id="text_7">
      <!-- NDCG@10 -->
      <defs>
       <path d="M 9.8125 72.90625 
L 23.09375 72.90625 
L 55.421875 11.921875 
L 55.421875 72.90625 
L 64.984375 72.90625 
L 64.984375 0 
L 51.703125 0 
L 19.390625 60.984375 
L 19.390625 0 
L 9.8125 0 
z
" id="DejaVuSans-78"/>
       <path d="M 19.671875 64.796875 
L 19.671875 8.109375 
L 31.59375 8.109375 
Q 46.6875 8.109375 53.6875 14.9375 
Q 60.6875 21.78125 60.6875 36.53125 
Q 60.6875 51.171875 53.6875 57.984375 
Q 46.6875 64.796875 31.59375 64.796875 
z
M 9.8125 72.90625 
L 30.078125 72.90625 
Q 51.265625 72.90625 61.171875 64.09375 
Q 71.09375 55.28125 71.09375 36.53125 
Q 71.09375 17.671875 61.125 8.828125 
Q 51.171875 0 30.078125 0 
L 9.8125 0 
z
" id="DejaVuSans-68"/>
       <path d="M 64.40625 67.28125 
L 64.40625 56.890625 
Q 59.421875 61.53125 53.78125 63.8125 
Q 48.140625 66.109375 41.796875 66.109375 
Q 29.296875 66.109375 22.65625 58.46875 
Q 16.015625 50.828125 16.015625 36.375 
Q 16.015625 21.96875 22.65625 14.328125 
Q 29.296875 6.6875 41.796875 6.6875 
Q 48.140625 6.6875 53.78125 8.984375 
Q 59.421875 11.28125 64.40625 15.921875 
L 64.40625 5.609375 
Q 59.234375 2.09375 53.4375 0.328125 
Q 47.65625 -1.421875 41.21875 -1.421875 
Q 24.65625 -1.421875 15.125 8.703125 
Q 5.609375 18.84375 5.609375 36.375 
Q 5.609375 53.953125 15.125 64.078125 
Q 24.65625 74.21875 41.21875 74.21875 
Q 47.75 74.21875 53.53125 72.484375 
Q 59.328125 70.75 64.40625 67.28125 
z
" id="DejaVuSans-67"/>
       <path d="M 59.515625 10.40625 
L 59.515625 29.984375 
L 43.40625 29.984375 
L 43.40625 38.09375 
L 69.28125 38.09375 
L 69.28125 6.78125 
Q 63.578125 2.734375 56.6875 0.65625 
Q 49.8125 -1.421875 42 -1.421875 
Q 24.90625 -1.421875 15.25 8.5625 
Q 5.609375 18.5625 5.609375 36.375 
Q 5.609375 54.25 15.25 64.234375 
Q 24.90625 74.21875 42 74.21875 
Q 49.125 74.21875 55.546875 72.453125 
Q 61.96875 70.703125 67.390625 67.28125 
L 67.390625 56.78125 
Q 61.921875 61.421875 55.765625 63.765625 
Q 49.609375 66.109375 42.828125 66.109375 
Q 29.4375 66.109375 22.71875 58.640625 
Q 16.015625 51.171875 16.015625 36.375 
Q 16.015625 21.625 22.71875 14.15625 
Q 29.4375 6.6875 42.828125 6.6875 
Q 48.046875 6.6875 52.140625 7.59375 
Q 56.25 8.5 59.515625 10.40625 
z
" id="DejaVuSans-71"/>
      </defs>
      <g style="fill:#262626;" transform="translate(688.402316 332.858281)scale(0.11 -0.11)">
       <use xlink:href="#DejaVuSans-78"/>
       <use x="74.804688" xlink:href="#DejaVuSans-68"/>
       <use x="151.806641" xlink:href="#DejaVuSans-67"/>
       <use x="221.630859" xlink:href="#DejaVuSans-71"/>
       <use x="299.121094" xlink:href="#DejaVuSans-64"/>
       <use x="399.121094" xlink:href="#DejaVuSans-49"/>
       <use x="462.744141" xlink:href="#DejaVuSans-48"/>
      </g>
     </g>
    </g>
    <g id="xtick_8">
     <g id="line2d_8">
      <path clip-path="url(#p233c08fd7e)" d="M 799.411765 315 
L 799.411765 43.2 
" style="fill:none;stroke:#ffffff;stroke-linecap:round;"/>
     </g>
     <g id="text_8">
      <!-- NDCG@20 -->
      <g style="fill:#262626;" transform="translate(770.46114 332.858281)scale(0.11 -0.11)">
       <use xlink:href="#DejaVuSans-78"/>
       <use x="74.804688" xlink:href="#DejaVuSans-68"/>
       <use x="151.806641" xlink:href="#DejaVuSans-67"/>
       <use x="221.630859" xlink:href="#DejaVuSans-71"/>
       <use x="299.121094" xlink:href="#DejaVuSans-64"/>
       <use x="399.121094" xlink:href="#DejaVuSans-50"/>
       <use x="462.744141" xlink:href="#DejaVuSans-48"/>
      </g>
     </g>
    </g>
    <g id="xtick_9">
     <g id="line2d_9">
      <path clip-path="url(#p233c08fd7e)" d="M 881.470588 315 
L 881.470588 43.2 
" style="fill:none;stroke:#ffffff;stroke-linecap:round;"/>
     </g>
     <g id="text_9">
      <!-- NDCG@5 -->
      <g style="fill:#262626;" transform="translate(856.019338 332.858281)scale(0.11 -0.11)">
       <use xlink:href="#DejaVuSans-78"/>
       <use x="74.804688" xlink:href="#DejaVuSans-68"/>
       <use x="151.806641" xlink:href="#DejaVuSans-67"/>
       <use x="221.630859" xlink:href="#DejaVuSans-71"/>
       <use x="299.121094" xlink:href="#DejaVuSans-64"/>
       <use x="399.121094" xlink:href="#DejaVuSans-53"/>
      </g>
     </g>
    </g>
    <g id="xtick_10">
     <g id="line2d_10">
      <path clip-path="url(#p233c08fd7e)" d="M 963.529412 315 
L 963.529412 43.2 
" style="fill:none;stroke:#ffffff;stroke-linecap:round;"/>
     </g>
     <g id="text_10">
      <!-- NDCG@50 -->
      <g style="fill:#262626;" transform="translate(934.578787 332.858281)scale(0.11 -0.11)">
       <use xlink:href="#DejaVuSans-78"/>
       <use x="74.804688" xlink:href="#DejaVuSans-68"/>
       <use x="151.806641" xlink:href="#DejaVuSans-67"/>
       <use x="221.630859" xlink:href="#DejaVuSans-71"/>
       <use x="299.121094" xlink:href="#DejaVuSans-64"/>
       <use x="399.121094" xlink:href="#DejaVuSans-53"/>
       <use x="462.744141" xlink:href="#DejaVuSans-48"/>
      </g>
     </g>
    </g>
    <g id="xtick_11">
     <g id="line2d_11">
      <path clip-path="url(#p233c08fd7e)" d="M 1045.588235 315 
L 1045.588235 43.2 
" style="fill:none;stroke:#ffffff;stroke-linecap:round;"/>
     </g>
     <g id="text_11">
      <!-- Precision@10 -->
      <defs>
       <path d="M 41.109375 46.296875 
Q 39.59375 47.171875 37.8125 47.578125 
Q 36.03125 48 33.890625 48 
Q 26.265625 48 22.1875 43.046875 
Q 18.109375 38.09375 18.109375 28.8125 
L 18.109375 0 
L 9.078125 0 
L 9.078125 54.6875 
L 18.109375 54.6875 
L 18.109375 46.1875 
Q 20.953125 51.171875 25.484375 53.578125 
Q 30.03125 56 36.53125 56 
Q 37.453125 56 38.578125 55.875 
Q 39.703125 55.765625 41.0625 55.515625 
z
" id="DejaVuSans-114"/>
       <path d="M 56.203125 29.59375 
L 56.203125 25.203125 
L 14.890625 25.203125 
Q 15.484375 15.921875 20.484375 11.0625 
Q 25.484375 6.203125 34.421875 6.203125 
Q 39.59375 6.203125 44.453125 7.46875 
Q 49.3125 8.734375 54.109375 11.28125 
L 54.109375 2.78125 
Q 49.265625 0.734375 44.1875 -0.34375 
Q 39.109375 -1.421875 33.890625 -1.421875 
Q 20.796875 -1.421875 13.15625 6.1875 
Q 5.515625 13.8125 5.515625 26.8125 
Q 5.515625 40.234375 12.765625 48.109375 
Q 20.015625 56 32.328125 56 
Q 43.359375 56 49.78125 48.890625 
Q 56.203125 41.796875 56.203125 29.59375 
z
M 47.21875 32.234375 
Q 47.125 39.59375 43.09375 43.984375 
Q 39.0625 48.390625 32.421875 48.390625 
Q 24.90625 48.390625 20.390625 44.140625 
Q 15.875 39.890625 15.1875 32.171875 
z
" id="DejaVuSans-101"/>
       <path d="M 48.78125 52.59375 
L 48.78125 44.1875 
Q 44.96875 46.296875 41.140625 47.34375 
Q 37.3125 48.390625 33.40625 48.390625 
Q 24.65625 48.390625 19.8125 42.84375 
Q 14.984375 37.3125 14.984375 27.296875 
Q 14.984375 17.28125 19.8125 11.734375 
Q 24.65625 6.203125 33.40625 6.203125 
Q 37.3125 6.203125 41.140625 7.25 
Q 44.96875 8.296875 48.78125 10.40625 
L 48.78125 2.09375 
Q 45.015625 0.34375 40.984375 -0.53125 
Q 36.96875 -1.421875 32.421875 -1.421875 
Q 20.0625 -1.421875 12.78125 6.34375 
Q 5.515625 14.109375 5.515625 27.296875 
Q 5.515625 40.671875 12.859375 48.328125 
Q 20.21875 56 33.015625 56 
Q 37.15625 56 41.109375 55.140625 
Q 45.0625 54.296875 48.78125 52.59375 
z
" id="DejaVuSans-99"/>
       <path d="M 9.421875 54.6875 
L 18.40625 54.6875 
L 18.40625 0 
L 9.421875 0 
z
M 9.421875 75.984375 
L 18.40625 75.984375 
L 18.40625 64.59375 
L 9.421875 64.59375 
z
" id="DejaVuSans-105"/>
       <path d="M 44.28125 53.078125 
L 44.28125 44.578125 
Q 40.484375 46.53125 36.375 47.5 
Q 32.28125 48.484375 27.875 48.484375 
Q 21.1875 48.484375 17.84375 46.4375 
Q 14.5 44.390625 14.5 40.28125 
Q 14.5 37.15625 16.890625 35.375 
Q 19.28125 33.59375 26.515625 31.984375 
L 29.59375 31.296875 
Q 39.15625 29.25 43.1875 25.515625 
Q 47.21875 21.78125 47.21875 15.09375 
Q 47.21875 7.46875 41.1875 3.015625 
Q 35.15625 -1.421875 24.609375 -1.421875 
Q 20.21875 -1.421875 15.453125 -0.5625 
Q 10.6875 0.296875 5.421875 2 
L 5.421875 11.28125 
Q 10.40625 8.6875 15.234375 7.390625 
Q 20.0625 6.109375 24.8125 6.109375 
Q 31.15625 6.109375 34.5625 8.28125 
Q 37.984375 10.453125 37.984375 14.40625 
Q 37.984375 18.0625 35.515625 20.015625 
Q 33.0625 21.96875 24.703125 23.78125 
L 21.578125 24.515625 
Q 13.234375 26.265625 9.515625 29.90625 
Q 5.8125 33.546875 5.8125 39.890625 
Q 5.8125 47.609375 11.28125 51.796875 
Q 16.75 56 26.8125 56 
Q 31.78125 56 36.171875 55.265625 
Q 40.578125 54.546875 44.28125 53.078125 
z
" id="DejaVuSans-115"/>
       <path d="M 30.609375 48.390625 
Q 23.390625 48.390625 19.1875 42.75 
Q 14.984375 37.109375 14.984375 27.296875 
Q 14.984375 17.484375 19.15625 11.84375 
Q 23.34375 6.203125 30.609375 6.203125 
Q 37.796875 6.203125 41.984375 11.859375 
Q 46.1875 17.53125 46.1875 27.296875 
Q 46.1875 37.015625 41.984375 42.703125 
Q 37.796875 48.390625 30.609375 48.390625 
z
M 30.609375 56 
Q 42.328125 56 49.015625 48.375 
Q 55.71875 40.765625 55.71875 27.296875 
Q 55.71875 13.875 49.015625 6.21875 
Q 42.328125 -1.421875 30.609375 -1.421875 
Q 18.84375 -1.421875 12.171875 6.21875 
Q 5.515625 13.875 5.515625 27.296875 
Q 5.515625 40.765625 12.171875 48.375 
Q 18.84375 56 30.609375 56 
z
" id="DejaVuSans-111"/>
       <path d="M 54.890625 33.015625 
L 54.890625 0 
L 45.90625 0 
L 45.90625 32.71875 
Q 45.90625 40.484375 42.875 44.328125 
Q 39.84375 48.1875 33.796875 48.1875 
Q 26.515625 48.1875 22.3125 43.546875 
Q 18.109375 38.921875 18.109375 30.90625 
L 18.109375 0 
L 9.078125 0 
L 9.078125 54.6875 
L 18.109375 54.6875 
L 18.109375 46.1875 
Q 21.34375 51.125 25.703125 53.5625 
Q 30.078125 56 35.796875 56 
Q 45.21875 56 50.046875 50.171875 
Q 54.890625 44.34375 54.890625 33.015625 
z
" id="DejaVuSans-110"/>
      </defs>
      <g style="fill:#262626;" transform="translate(1008.551751 332.858281)scale(0.11 -0.11)">
       <use xlink:href="#DejaVuSans-80"/>
       <use x="58.552734" xlink:href="#DejaVuSans-114"/>
       <use x="97.416016" xlink:href="#DejaVuSans-101"/>
       <use x="158.939453" xlink:href="#DejaVuSans-99"/>
       <use x="213.919922" xlink:href="#DejaVuSans-105"/>
       <use x="241.703125" xlink:href="#DejaVuSans-115"/>
       <use x="293.802734" xlink:href="#DejaVuSans-105"/>
       <use x="321.585938" xlink:href="#DejaVuSans-111"/>
       <use x="382.767578" xlink:href="#DejaVuSans-110"/>
       <use x="446.146484" xlink:href="#DejaVuSans-64"/>
       <use x="546.146484" xlink:href="#DejaVuSans-49"/>
       <use x="609.769531" xlink:href="#DejaVuSans-48"/>
      </g>
     </g>
    </g>
    <g id="xtick_12">
     <g id="line2d_12">
      <path clip-path="url(#p233c08fd7e)" d="M 1127.647059 315 
L 1127.647059 43.2 
" style="fill:none;stroke:#ffffff;stroke-linecap:round;"/>
     </g>
     <g id="text_12">
      <!-- Precision@20 -->
      <g style="fill:#262626;" transform="translate(1090.610574 332.858281)scale(0.11 -0.11)">
       <use xlink:href="#DejaVuSans-80"/>
       <use x="58.552734" xlink:href="#DejaVuSans-114"/>
       <use x="97.416016" xlink:href="#DejaVuSans-101"/>
       <use x="158.939453" xlink:href="#DejaVuSans-99"/>
       <use x="213.919922" xlink:href="#DejaVuSans-105"/>
       <use x="241.703125" xlink:href="#DejaVuSans-115"/>
       <use x="293.802734" xlink:href="#DejaVuSans-105"/>
       <use x="321.585938" xlink:href="#DejaVuSans-111"/>
       <use x="382.767578" xlink:href="#DejaVuSans-110"/>
       <use x="446.146484" xlink:href="#DejaVuSans-64"/>
       <use x="546.146484" xlink:href="#DejaVuSans-50"/>
       <use x="609.769531" xlink:href="#DejaVuSans-48"/>
      </g>
     </g>
    </g>
    <g id="xtick_13">
     <g id="line2d_13">
      <path clip-path="url(#p233c08fd7e)" d="M 1209.705882 315 
L 1209.705882 43.2 
" style="fill:none;stroke:#ffffff;stroke-linecap:round;"/>
     </g>
     <g id="text_13">
      <!-- Precision@5 -->
      <g style="fill:#262626;" transform="translate(1176.168773 332.858281)scale(0.11 -0.11)">
       <use xlink:href="#DejaVuSans-80"/>
       <use x="58.552734" xlink:href="#DejaVuSans-114"/>
       <use x="97.416016" xlink:href="#DejaVuSans-101"/>
       <use x="158.939453" xlink:href="#DejaVuSans-99"/>
       <use x="213.919922" xlink:href="#DejaVuSans-105"/>
       <use x="241.703125" xlink:href="#DejaVuSans-115"/>
       <use x="293.802734" xlink:href="#DejaVuSans-105"/>
       <use x="321.585938" xlink:href="#DejaVuSans-111"/>
       <use x="382.767578" xlink:href="#DejaVuSans-110"/>
       <use x="446.146484" xlink:href="#DejaVuSans-64"/>
       <use x="546.146484" xlink:href="#DejaVuSans-53"/>
      </g>
     </g>
    </g>
    <g id="xtick_14">
     <g id="line2d_14">
      <path clip-path="url(#p233c08fd7e)" d="M 1291.764706 315 
L 1291.764706 43.2 
" style="fill:none;stroke:#ffffff;stroke-linecap:round;"/>
     </g>
     <g id="text_14">
      <!-- Precision@50 -->
      <g style="fill:#262626;" transform="translate(1254.728222 332.858281)scale(0.11 -0.11)">
       <use xlink:href="#DejaVuSans-80"/>
       <use x="58.552734" xlink:href="#DejaVuSans-114"/>
       <use x="97.416016" xlink:href="#DejaVuSans-101"/>
       <use x="158.939453" xlink:href="#DejaVuSans-99"/>
       <use x="213.919922" xlink:href="#DejaVuSans-105"/>
       <use x="241.703125" xlink:href="#DejaVuSans-115"/>
       <use x="293.802734" xlink:href="#DejaVuSans-105"/>
       <use x="321.585938" xlink:href="#DejaVuSans-111"/>
       <use x="382.767578" xlink:href="#DejaVuSans-110"/>
       <use x="446.146484" xlink:href="#DejaVuSans-64"/>
       <use x="546.146484" xlink:href="#DejaVuSans-53"/>
       <use x="609.769531" xlink:href="#DejaVuSans-48"/>
      </g>
     </g>
    </g>
    <g id="xtick_15">
     <g id="line2d_15">
      <path clip-path="url(#p233c08fd7e)" d="M 1373.823529 315 
L 1373.823529 43.2 
" style="fill:none;stroke:#ffffff;stroke-linecap:round;"/>
     </g>
     <g id="text_15">
      <!-- Recall@10 -->
      <defs>
       <path d="M 34.28125 27.484375 
Q 23.390625 27.484375 19.1875 25 
Q 14.984375 22.515625 14.984375 16.5 
Q 14.984375 11.71875 18.140625 8.90625 
Q 21.296875 6.109375 26.703125 6.109375 
Q 34.1875 6.109375 38.703125 11.40625 
Q 43.21875 16.703125 43.21875 25.484375 
L 43.21875 27.484375 
z
M 52.203125 31.203125 
L 52.203125 0 
L 43.21875 0 
L 43.21875 8.296875 
Q 40.140625 3.328125 35.546875 0.953125 
Q 30.953125 -1.421875 24.3125 -1.421875 
Q 15.921875 -1.421875 10.953125 3.296875 
Q 6 8.015625 6 15.921875 
Q 6 25.140625 12.171875 29.828125 
Q 18.359375 34.515625 30.609375 34.515625 
L 43.21875 34.515625 
L 43.21875 35.40625 
Q 43.21875 41.609375 39.140625 45 
Q 35.0625 48.390625 27.6875 48.390625 
Q 23 48.390625 18.546875 47.265625 
Q 14.109375 46.140625 10.015625 43.890625 
L 10.015625 52.203125 
Q 14.9375 54.109375 19.578125 55.046875 
Q 24.21875 56 28.609375 56 
Q 40.484375 56 46.34375 49.84375 
Q 52.203125 43.703125 52.203125 31.203125 
z
" id="DejaVuSans-97"/>
       <path d="M 9.421875 75.984375 
L 18.40625 75.984375 
L 18.40625 0 
L 9.421875 0 
z
" id="DejaVuSans-108"/>
      </defs>
      <g style="fill:#262626;" transform="translate(1344.915873 332.858281)scale(0.11 -0.11)">
       <use xlink:href="#DejaVuSans-82"/>
       <use x="64.982422" xlink:href="#DejaVuSans-101"/>
       <use x="126.505859" xlink:href="#DejaVuSans-99"/>
       <use x="181.486328" xlink:href="#DejaVuSans-97"/>
       <use x="242.765625" xlink:href="#DejaVuSans-108"/>
       <use x="270.548828" xlink:href="#DejaVuSans-108"/>
       <use x="298.332031" xlink:href="#DejaVuSans-64"/>
       <use x="398.332031" xlink:href="#DejaVuSans-49"/>
       <use x="461.955078" xlink:href="#DejaVuSans-48"/>
      </g>
     </g>
    </g>
    <g id="xtick_16">
     <g id="line2d_16">
      <path clip-path="url(#p233c08fd7e)" d="M 1455.882353 315 
L 1455.882353 43.2 
" style="fill:none;stroke:#ffffff;stroke-linecap:round;"/>
     </g>
     <g id="text_16">
      <!-- Recall@20 -->
      <g style="fill:#262626;" transform="translate(1426.974697 332.858281)scale(0.11 -0.11)">
       <use xlink:href="#DejaVuSans-82"/>
       <use x="64.982422" xlink:href="#DejaVuSans-101"/>
       <use x="126.505859" xlink:href="#DejaVuSans-99"/>
       <use x="181.486328" xlink:href="#DejaVuSans-97"/>
       <use x="242.765625" xlink:href="#DejaVuSans-108"/>
       <use x="270.548828" xlink:href="#DejaVuSans-108"/>
       <use x="298.332031" xlink:href="#DejaVuSans-64"/>
       <use x="398.332031" xlink:href="#DejaVuSans-50"/>
       <use x="461.955078" xlink:href="#DejaVuSans-48"/>
      </g>
     </g>
    </g>
    <g id="xtick_17">
     <g id="line2d_17">
      <path clip-path="url(#p233c08fd7e)" d="M 1537.941176 315 
L 1537.941176 43.2 
" style="fill:none;stroke:#ffffff;stroke-linecap:round;"/>
     </g>
     <g id="text_17">
      <!-- Recall@5 -->
      <g style="fill:#262626;" transform="translate(1512.532895 332.858281)scale(0.11 -0.11)">
       <use xlink:href="#DejaVuSans-82"/>
       <use x="64.982422" xlink:href="#DejaVuSans-101"/>
       <use x="126.505859" xlink:href="#DejaVuSans-99"/>
       <use x="181.486328" xlink:href="#DejaVuSans-97"/>
       <use x="242.765625" xlink:href="#DejaVuSans-108"/>
       <use x="270.548828" xlink:href="#DejaVuSans-108"/>
       <use x="298.332031" xlink:href="#DejaVuSans-64"/>
       <use x="398.332031" xlink:href="#DejaVuSans-53"/>
      </g>
     </g>
    </g>
    <g id="xtick_18">
     <g id="line2d_18">
      <path clip-path="url(#p233c08fd7e)" d="M 1620 315 
L 1620 43.2 
" style="fill:none;stroke:#ffffff;stroke-linecap:round;"/>
     </g>
     <g id="text_18">
      <!-- Recall@50 -->
      <g style="fill:#262626;" transform="translate(1591.092344 332.858281)scale(0.11 -0.11)">
       <use xlink:href="#DejaVuSans-82"/>
       <use x="64.982422" xlink:href="#DejaVuSans-101"/>
       <use x="126.505859" xlink:href="#DejaVuSans-99"/>
       <use x="181.486328" xlink:href="#DejaVuSans-97"/>
       <use x="242.765625" xlink:href="#DejaVuSans-108"/>
       <use x="270.548828" xlink:href="#DejaVuSans-108"/>
       <use x="298.332031" xlink:href="#DejaVuSans-64"/>
       <use x="398.332031" xlink:href="#DejaVuSans-53"/>
       <use x="461.955078" xlink:href="#DejaVuSans-48"/>
      </g>
     </g>
    </g>
    <g id="text_19">
     <!-- Metric -->
     <defs>
      <path d="M 18.3125 70.21875 
L 18.3125 54.6875 
L 36.8125 54.6875 
L 36.8125 47.703125 
L 18.3125 47.703125 
L 18.3125 18.015625 
Q 18.3125 11.328125 20.140625 9.421875 
Q 21.96875 7.515625 27.59375 7.515625 
L 36.8125 7.515625 
L 36.8125 0 
L 27.59375 0 
Q 17.1875 0 13.234375 3.875 
Q 9.28125 7.765625 9.28125 18.015625 
L 9.28125 47.703125 
L 2.6875 47.703125 
L 2.6875 54.6875 
L 9.28125 54.6875 
L 9.28125 70.21875 
z
" id="DejaVuSans-116"/>
     </defs>
     <g style="fill:#262626;" transform="translate(903.846563 348.264063)scale(0.12 -0.12)">
      <use xlink:href="#DejaVuSans-77"/>
      <use x="86.279297" xlink:href="#DejaVuSans-101"/>
      <use x="147.802734" xlink:href="#DejaVuSans-116"/>
      <use x="187.011719" xlink:href="#DejaVuSans-114"/>
      <use x="228.125" xlink:href="#DejaVuSans-105"/>
      <use x="255.908203" xlink:href="#DejaVuSans-99"/>
     </g>
    </g>
   </g>
   <g id="matplotlib.axis_2">
    <g id="ytick_1">
     <g id="line2d_19">
      <path clip-path="url(#p233c08fd7e)" d="M 225 303.232291 
L 1620 303.232291 
" style="fill:none;stroke:#ffffff;stroke-linecap:round;"/>
     </g>
     <g id="text_20">
      <!-- 0.00 -->
      <defs>
       <path d="M 10.6875 12.40625 
L 21 12.40625 
L 21 0 
L 10.6875 0 
z
" id="DejaVuSans-46"/>
      </defs>
      <g style="fill:#262626;" transform="translate(191.007812 307.411431)scale(0.11 -0.11)">
       <use xlink:href="#DejaVuSans-48"/>
       <use x="63.623047" xlink:href="#DejaVuSans-46"/>
       <use x="95.410156" xlink:href="#DejaVuSans-48"/>
       <use x="159.033203" xlink:href="#DejaVuSans-48"/>
      </g>
     </g>
    </g>
    <g id="ytick_2">
     <g id="line2d_20">
      <path clip-path="url(#p233c08fd7e)" d="M 225 263.664865 
L 1620 263.664865 
" style="fill:none;stroke:#ffffff;stroke-linecap:round;"/>
     </g>
     <g id="text_21">
      <!-- 0.02 -->
      <g style="fill:#262626;" transform="translate(191.007812 267.844006)scale(0.11 -0.11)">
       <use xlink:href="#DejaVuSans-48"/>
       <use x="63.623047" xlink:href="#DejaVuSans-46"/>
       <use x="95.410156" xlink:href="#DejaVuSans-48"/>
       <use x="159.033203" xlink:href="#DejaVuSans-50"/>
      </g>
     </g>
    </g>
    <g id="ytick_3">
     <g id="line2d_21">
      <path clip-path="url(#p233c08fd7e)" d="M 225 224.09744 
L 1620 224.09744 
" style="fill:none;stroke:#ffffff;stroke-linecap:round;"/>
     </g>
     <g id="text_22">
      <!-- 0.04 -->
      <defs>
       <path d="M 37.796875 64.3125 
L 12.890625 25.390625 
L 37.796875 25.390625 
z
M 35.203125 72.90625 
L 47.609375 72.90625 
L 47.609375 25.390625 
L 58.015625 25.390625 
L 58.015625 17.1875 
L 47.609375 17.1875 
L 47.609375 0 
L 37.796875 0 
L 37.796875 17.1875 
L 4.890625 17.1875 
L 4.890625 26.703125 
z
" id="DejaVuSans-52"/>
      </defs>
      <g style="fill:#262626;" transform="translate(191.007812 228.27658)scale(0.11 -0.11)">
       <use xlink:href="#DejaVuSans-48"/>
       <use x="63.623047" xlink:href="#DejaVuSans-46"/>
       <use x="95.410156" xlink:href="#DejaVuSans-48"/>
       <use x="159.033203" xlink:href="#DejaVuSans-52"/>
      </g>
     </g>
    </g>
    <g id="ytick_4">
     <g id="line2d_22">
      <path clip-path="url(#p233c08fd7e)" d="M 225 184.530014 
L 1620 184.530014 
" style="fill:none;stroke:#ffffff;stroke-linecap:round;"/>
     </g>
     <g id="text_23">
      <!-- 0.06 -->
      <defs>
       <path d="M 33.015625 40.375 
Q 26.375 40.375 22.484375 35.828125 
Q 18.609375 31.296875 18.609375 23.390625 
Q 18.609375 15.53125 22.484375 10.953125 
Q 26.375 6.390625 33.015625 6.390625 
Q 39.65625 6.390625 43.53125 10.953125 
Q 47.40625 15.53125 47.40625 23.390625 
Q 47.40625 31.296875 43.53125 35.828125 
Q 39.65625 40.375 33.015625 40.375 
z
M 52.59375 71.296875 
L 52.59375 62.3125 
Q 48.875 64.0625 45.09375 64.984375 
Q 41.3125 65.921875 37.59375 65.921875 
Q 27.828125 65.921875 22.671875 59.328125 
Q 17.53125 52.734375 16.796875 39.40625 
Q 19.671875 43.65625 24.015625 45.921875 
Q 28.375 48.1875 33.59375 48.1875 
Q 44.578125 48.1875 50.953125 41.515625 
Q 57.328125 34.859375 57.328125 23.390625 
Q 57.328125 12.15625 50.6875 5.359375 
Q 44.046875 -1.421875 33.015625 -1.421875 
Q 20.359375 -1.421875 13.671875 8.265625 
Q 6.984375 17.96875 6.984375 36.375 
Q 6.984375 53.65625 15.1875 63.9375 
Q 23.390625 74.21875 37.203125 74.21875 
Q 40.921875 74.21875 44.703125 73.484375 
Q 48.484375 72.75 52.59375 71.296875 
z
" id="DejaVuSans-54"/>
      </defs>
      <g style="fill:#262626;" transform="translate(191.007812 188.709155)scale(0.11 -0.11)">
       <use xlink:href="#DejaVuSans-48"/>
       <use x="63.623047" xlink:href="#DejaVuSans-46"/>
       <use x="95.410156" xlink:href="#DejaVuSans-48"/>
       <use x="159.033203" xlink:href="#DejaVuSans-54"/>
      </g>
     </g>
    </g>
    <g id="ytick_5">
     <g id="line2d_23">
      <path clip-path="url(#p233c08fd7e)" d="M 225 144.962588 
L 1620 144.962588 
" style="fill:none;stroke:#ffffff;stroke-linecap:round;"/>
     </g>
     <g id="text_24">
      <!-- 0.08 -->
      <defs>
       <path d="M 31.78125 34.625 
Q 24.75 34.625 20.71875 30.859375 
Q 16.703125 27.09375 16.703125 20.515625 
Q 16.703125 13.921875 20.71875 10.15625 
Q 24.75 6.390625 31.78125 6.390625 
Q 38.8125 6.390625 42.859375 10.171875 
Q 46.921875 13.96875 46.921875 20.515625 
Q 46.921875 27.09375 42.890625 30.859375 
Q 38.875 34.625 31.78125 34.625 
z
M 21.921875 38.8125 
Q 15.578125 40.375 12.03125 44.71875 
Q 8.5 49.078125 8.5 55.328125 
Q 8.5 64.0625 14.71875 69.140625 
Q 20.953125 74.21875 31.78125 74.21875 
Q 42.671875 74.21875 48.875 69.140625 
Q 55.078125 64.0625 55.078125 55.328125 
Q 55.078125 49.078125 51.53125 44.71875 
Q 48 40.375 41.703125 38.8125 
Q 48.828125 37.15625 52.796875 32.3125 
Q 56.78125 27.484375 56.78125 20.515625 
Q 56.78125 9.90625 50.3125 4.234375 
Q 43.84375 -1.421875 31.78125 -1.421875 
Q 19.734375 -1.421875 13.25 4.234375 
Q 6.78125 9.90625 6.78125 20.515625 
Q 6.78125 27.484375 10.78125 32.3125 
Q 14.796875 37.15625 21.921875 38.8125 
z
M 18.3125 54.390625 
Q 18.3125 48.734375 21.84375 45.5625 
Q 25.390625 42.390625 31.78125 42.390625 
Q 38.140625 42.390625 41.71875 45.5625 
Q 45.3125 48.734375 45.3125 54.390625 
Q 45.3125 60.0625 41.71875 63.234375 
Q 38.140625 66.40625 31.78125 66.40625 
Q 25.390625 66.40625 21.84375 63.234375 
Q 18.3125 60.0625 18.3125 54.390625 
z
" id="DejaVuSans-56"/>
      </defs>
      <g style="fill:#262626;" transform="translate(191.007812 149.141729)scale(0.11 -0.11)">
       <use xlink:href="#DejaVuSans-48"/>
       <use x="63.623047" xlink:href="#DejaVuSans-46"/>
       <use x="95.410156" xlink:href="#DejaVuSans-48"/>
       <use x="159.033203" xlink:href="#DejaVuSans-56"/>
      </g>
     </g>
    </g>
    <g id="ytick_6">
     <g id="line2d_24">
      <path clip-path="url(#p233c08fd7e)" d="M 225 105.395163 
L 1620 105.395163 
" style="fill:none;stroke:#ffffff;stroke-linecap:round;"/>
     </g>
     <g id="text_25">
      <!-- 0.10 -->
      <g style="fill:#262626;" transform="translate(191.007812 109.574303)scale(0.11 -0.11)">
       <use xlink:href="#DejaVuSans-48"/>
       <use x="63.623047" xlink:href="#DejaVuSans-46"/>
       <use x="95.410156" xlink:href="#DejaVuSans-49"/>
       <use x="159.033203" xlink:href="#DejaVuSans-48"/>
      </g>
     </g>
    </g>
    <g id="ytick_7">
     <g id="line2d_25">
      <path clip-path="url(#p233c08fd7e)" d="M 225 65.827737 
L 1620 65.827737 
" style="fill:none;stroke:#ffffff;stroke-linecap:round;"/>
     </g>
     <g id="text_26">
      <!-- 0.12 -->
      <g style="fill:#262626;" transform="translate(191.007812 70.006878)scale(0.11 -0.11)">
       <use xlink:href="#DejaVuSans-48"/>
       <use x="63.623047" xlink:href="#DejaVuSans-46"/>
       <use x="95.410156" xlink:href="#DejaVuSans-49"/>
       <use x="159.033203" xlink:href="#DejaVuSans-50"/>
      </g>
     </g>
    </g>
   </g>
   <g id="line2d_26">
    <path clip-path="url(#p233c08fd7e)" d="M 225 281.707336 
L 307.058824 282.74019 
L 389.117647 282.492841 
L 471.176471 285.57019 
L 553.235294 272.592132 
L 635.294118 230.140809 
L 717.352941 266.555901 
L 799.411765 256.551715 
L 881.470588 273.360394 
L 963.529412 237.717276 
L 1045.588235 287.46107 
L 1127.647059 290.321896 
L 1209.705882 284.38018 
L 1291.764706 293.39545 
L 1373.823529 251.204821 
L 1455.882353 220.791968 
L 1537.941176 271.032515 
L 1620 152.516103 
" style="fill:none;stroke:#4c72b0;stroke-linecap:round;stroke-width:1.5;"/>
    <defs>
     <path d="M 0 3 
C 0.795609 3 1.55874 2.683901 2.12132 2.12132 
C 2.683901 1.55874 3 0.795609 3 0 
C 3 -0.795609 2.683901 -1.55874 2.12132 -2.12132 
C 1.55874 -2.683901 0.795609 -3 0 -3 
C -0.795609 -3 -1.55874 -2.683901 -2.12132 -2.12132 
C -2.683901 -1.55874 -3 -0.795609 -3 0 
C -3 0.795609 -2.683901 1.55874 -2.12132 2.12132 
C -1.55874 2.683901 -0.795609 3 0 3 
z
" id="m6d0c979248" style="stroke:#ffffff;stroke-width:0.75;"/>
    </defs>
    <g clip-path="url(#p233c08fd7e)">
     <use style="fill:#4c72b0;stroke:#ffffff;stroke-width:0.75;" x="225" xlink:href="#m6d0c979248" y="281.707336"/>
     <use style="fill:#4c72b0;stroke:#ffffff;stroke-width:0.75;" x="307.058824" xlink:href="#m6d0c979248" y="282.74019"/>
     <use style="fill:#4c72b0;stroke:#ffffff;stroke-width:0.75;" x="389.117647" xlink:href="#m6d0c979248" y="282.492841"/>
     <use style="fill:#4c72b0;stroke:#ffffff;stroke-width:0.75;" x="471.176471" xlink:href="#m6d0c979248" y="285.57019"/>
     <use style="fill:#4c72b0;stroke:#ffffff;stroke-width:0.75;" x="553.235294" xlink:href="#m6d0c979248" y="272.592132"/>
     <use style="fill:#4c72b0;stroke:#ffffff;stroke-width:0.75;" x="635.294118" xlink:href="#m6d0c979248" y="230.140809"/>
     <use style="fill:#4c72b0;stroke:#ffffff;stroke-width:0.75;" x="717.352941" xlink:href="#m6d0c979248" y="266.555901"/>
     <use style="fill:#4c72b0;stroke:#ffffff;stroke-width:0.75;" x="799.411765" xlink:href="#m6d0c979248" y="256.551715"/>
     <use style="fill:#4c72b0;stroke:#ffffff;stroke-width:0.75;" x="881.470588" xlink:href="#m6d0c979248" y="273.360394"/>
     <use style="fill:#4c72b0;stroke:#ffffff;stroke-width:0.75;" x="963.529412" xlink:href="#m6d0c979248" y="237.717276"/>
     <use style="fill:#4c72b0;stroke:#ffffff;stroke-width:0.75;" x="1045.588235" xlink:href="#m6d0c979248" y="287.46107"/>
     <use style="fill:#4c72b0;stroke:#ffffff;stroke-width:0.75;" x="1127.647059" xlink:href="#m6d0c979248" y="290.321896"/>
     <use style="fill:#4c72b0;stroke:#ffffff;stroke-width:0.75;" x="1209.705882" xlink:href="#m6d0c979248" y="284.38018"/>
     <use style="fill:#4c72b0;stroke:#ffffff;stroke-width:0.75;" x="1291.764706" xlink:href="#m6d0c979248" y="293.39545"/>
     <use style="fill:#4c72b0;stroke:#ffffff;stroke-width:0.75;" x="1373.823529" xlink:href="#m6d0c979248" y="251.204821"/>
     <use style="fill:#4c72b0;stroke:#ffffff;stroke-width:0.75;" x="1455.882353" xlink:href="#m6d0c979248" y="220.791968"/>
     <use style="fill:#4c72b0;stroke:#ffffff;stroke-width:0.75;" x="1537.941176" xlink:href="#m6d0c979248" y="271.032515"/>
     <use style="fill:#4c72b0;stroke:#ffffff;stroke-width:0.75;" x="1620" xlink:href="#m6d0c979248" y="152.516103"/>
    </g>
   </g>
   <g id="line2d_27">
    <path clip-path="url(#p233c08fd7e)" d="M 225 300.691131 
L 307.058824 300.087871 
L 389.117647 300.967984 
L 471.176471 300.456864 
L 553.235294 298.621309 
L 635.294118 291.112256 
L 717.352941 299.565141 
L 799.411765 297.526405 
L 881.470588 300.349786 
L 963.529412 294.667689 
L 1045.588235 301.251719 
L 1127.647059 301.215041 
L 1209.705882 300.884946 
L 1291.764706 301.677175 
L 1373.823529 297.863855 
L 1455.882353 292.003217 
L 1537.941176 300.435163 
L 1620 282.055373 
" style="fill:none;stroke:#dd8452;stroke-dasharray:6,2.25;stroke-dashoffset:0;stroke-width:1.5;"/>
    <defs>
     <path d="M -1.5 3 
L 0 1.5 
L 1.5 3 
L 3 1.5 
L 1.5 0 
L 3 -1.5 
L 1.5 -3 
L 0 -1.5 
L -1.5 -3 
L -3 -1.5 
L -1.5 0 
L -3 1.5 
z
" id="m4f1e291c78" style="stroke:#ffffff;stroke-linejoin:miter;stroke-width:0.75;"/>
    </defs>
    <g clip-path="url(#p233c08fd7e)">
     <use style="fill:#dd8452;stroke:#ffffff;stroke-linejoin:miter;stroke-width:0.75;" x="225" xlink:href="#m4f1e291c78" y="300.691131"/>
     <use style="fill:#dd8452;stroke:#ffffff;stroke-linejoin:miter;stroke-width:0.75;" x="307.058824" xlink:href="#m4f1e291c78" y="300.087871"/>
     <use style="fill:#dd8452;stroke:#ffffff;stroke-linejoin:miter;stroke-width:0.75;" x="389.117647" xlink:href="#m4f1e291c78" y="300.967984"/>
     <use style="fill:#dd8452;stroke:#ffffff;stroke-linejoin:miter;stroke-width:0.75;" x="471.176471" xlink:href="#m4f1e291c78" y="300.456864"/>
     <use style="fill:#dd8452;stroke:#ffffff;stroke-linejoin:miter;stroke-width:0.75;" x="553.235294" xlink:href="#m4f1e291c78" y="298.621309"/>
     <use style="fill:#dd8452;stroke:#ffffff;stroke-linejoin:miter;stroke-width:0.75;" x="635.294118" xlink:href="#m4f1e291c78" y="291.112256"/>
     <use style="fill:#dd8452;stroke:#ffffff;stroke-linejoin:miter;stroke-width:0.75;" x="717.352941" xlink:href="#m4f1e291c78" y="299.565141"/>
     <use style="fill:#dd8452;stroke:#ffffff;stroke-linejoin:miter;stroke-width:0.75;" x="799.411765" xlink:href="#m4f1e291c78" y="297.526405"/>
     <use style="fill:#dd8452;stroke:#ffffff;stroke-linejoin:miter;stroke-width:0.75;" x="881.470588" xlink:href="#m4f1e291c78" y="300.349786"/>
     <use style="fill:#dd8452;stroke:#ffffff;stroke-linejoin:miter;stroke-width:0.75;" x="963.529412" xlink:href="#m4f1e291c78" y="294.667689"/>
     <use style="fill:#dd8452;stroke:#ffffff;stroke-linejoin:miter;stroke-width:0.75;" x="1045.588235" xlink:href="#m4f1e291c78" y="301.251719"/>
     <use style="fill:#dd8452;stroke:#ffffff;stroke-linejoin:miter;stroke-width:0.75;" x="1127.647059" xlink:href="#m4f1e291c78" y="301.215041"/>
     <use style="fill:#dd8452;stroke:#ffffff;stroke-linejoin:miter;stroke-width:0.75;" x="1209.705882" xlink:href="#m4f1e291c78" y="300.884946"/>
     <use style="fill:#dd8452;stroke:#ffffff;stroke-linejoin:miter;stroke-width:0.75;" x="1291.764706" xlink:href="#m4f1e291c78" y="301.677175"/>
     <use style="fill:#dd8452;stroke:#ffffff;stroke-linejoin:miter;stroke-width:0.75;" x="1373.823529" xlink:href="#m4f1e291c78" y="297.863855"/>
     <use style="fill:#dd8452;stroke:#ffffff;stroke-linejoin:miter;stroke-width:0.75;" x="1455.882353" xlink:href="#m4f1e291c78" y="292.003217"/>
     <use style="fill:#dd8452;stroke:#ffffff;stroke-linejoin:miter;stroke-width:0.75;" x="1537.941176" xlink:href="#m4f1e291c78" y="300.435163"/>
     <use style="fill:#dd8452;stroke:#ffffff;stroke-linejoin:miter;stroke-width:0.75;" x="1620" xlink:href="#m4f1e291c78" y="282.055373"/>
    </g>
   </g>
   <g id="line2d_28">
    <path clip-path="url(#p233c08fd7e)" d="M 225 281.707336 
L 307.058824 282.534677 
L 389.117647 282.521813 
L 471.176471 285.45797 
L 553.235294 272.958263 
L 635.294118 230.17469 
L 717.352941 266.643989 
L 799.411765 256.318555 
L 881.470588 273.291772 
L 963.529412 237.408776 
L 1045.588235 287.46107 
L 1127.647059 290.211864 
L 1209.705882 284.086762 
L 1291.764706 293.336767 
L 1373.823529 251.204821 
L 1455.882353 219.729982 
L 1537.941176 271.424183 
L 1620 150.679057 
" style="fill:none;stroke:#55a868;stroke-dasharray:1.5,1.5;stroke-dashoffset:0;stroke-width:1.5;"/>
    <defs>
     <path d="M -2.12132 -2.12132 
L -2.12132 2.12132 
L 2.12132 2.12132 
L 2.12132 -2.12132 
z
" id="m49bddbdee9" style="stroke:#ffffff;stroke-linejoin:miter;stroke-width:0.75;"/>
    </defs>
    <g clip-path="url(#p233c08fd7e)">
     <use style="fill:#55a868;stroke:#ffffff;stroke-linejoin:miter;stroke-width:0.75;" x="225" xlink:href="#m49bddbdee9" y="281.707336"/>
     <use style="fill:#55a868;stroke:#ffffff;stroke-linejoin:miter;stroke-width:0.75;" x="307.058824" xlink:href="#m49bddbdee9" y="282.534677"/>
     <use style="fill:#55a868;stroke:#ffffff;stroke-linejoin:miter;stroke-width:0.75;" x="389.117647" xlink:href="#m49bddbdee9" y="282.521813"/>
     <use style="fill:#55a868;stroke:#ffffff;stroke-linejoin:miter;stroke-width:0.75;" x="471.176471" xlink:href="#m49bddbdee9" y="285.45797"/>
     <use style="fill:#55a868;stroke:#ffffff;stroke-linejoin:miter;stroke-width:0.75;" x="553.235294" xlink:href="#m49bddbdee9" y="272.958263"/>
     <use style="fill:#55a868;stroke:#ffffff;stroke-linejoin:miter;stroke-width:0.75;" x="635.294118" xlink:href="#m49bddbdee9" y="230.17469"/>
     <use style="fill:#55a868;stroke:#ffffff;stroke-linejoin:miter;stroke-width:0.75;" x="717.352941" xlink:href="#m49bddbdee9" y="266.643989"/>
     <use style="fill:#55a868;stroke:#ffffff;stroke-linejoin:miter;stroke-width:0.75;" x="799.411765" xlink:href="#m49bddbdee9" y="256.318555"/>
     <use style="fill:#55a868;stroke:#ffffff;stroke-linejoin:miter;stroke-width:0.75;" x="881.470588" xlink:href="#m49bddbdee9" y="273.291772"/>
     <use style="fill:#55a868;stroke:#ffffff;stroke-linejoin:miter;stroke-width:0.75;" x="963.529412" xlink:href="#m49bddbdee9" y="237.408776"/>
     <use style="fill:#55a868;stroke:#ffffff;stroke-linejoin:miter;stroke-width:0.75;" x="1045.588235" xlink:href="#m49bddbdee9" y="287.46107"/>
     <use style="fill:#55a868;stroke:#ffffff;stroke-linejoin:miter;stroke-width:0.75;" x="1127.647059" xlink:href="#m49bddbdee9" y="290.211864"/>
     <use style="fill:#55a868;stroke:#ffffff;stroke-linejoin:miter;stroke-width:0.75;" x="1209.705882" xlink:href="#m49bddbdee9" y="284.086762"/>
     <use style="fill:#55a868;stroke:#ffffff;stroke-linejoin:miter;stroke-width:0.75;" x="1291.764706" xlink:href="#m49bddbdee9" y="293.336767"/>
     <use style="fill:#55a868;stroke:#ffffff;stroke-linejoin:miter;stroke-width:0.75;" x="1373.823529" xlink:href="#m49bddbdee9" y="251.204821"/>
     <use style="fill:#55a868;stroke:#ffffff;stroke-linejoin:miter;stroke-width:0.75;" x="1455.882353" xlink:href="#m49bddbdee9" y="219.729982"/>
     <use style="fill:#55a868;stroke:#ffffff;stroke-linejoin:miter;stroke-width:0.75;" x="1537.941176" xlink:href="#m49bddbdee9" y="271.424183"/>
     <use style="fill:#55a868;stroke:#ffffff;stroke-linejoin:miter;stroke-width:0.75;" x="1620" xlink:href="#m49bddbdee9" y="150.679057"/>
    </g>
   </g>
   <g id="line2d_29">
    <path clip-path="url(#p233c08fd7e)" d="M 225 302.23402 
L 307.058824 302.056134 
L 389.117647 302.585244 
L 471.176471 301.834984 
L 553.235294 300.254122 
L 635.294118 297.330523 
L 717.352941 301.940116 
L 799.411765 301.203853 
L 881.470588 302.445194 
L 963.529412 299.455513 
L 1045.588235 302.498746 
L 1127.647059 302.498746 
L 1209.705882 302.645455 
L 1291.764706 302.454733 
L 1373.823529 301.311829 
L 1455.882353 299.142849 
L 1537.941176 302.406616 
L 1620 293.143314 
" style="fill:none;stroke:#c44e52;stroke-dasharray:4.5,1.875,2.25,1.875;stroke-dashoffset:0;stroke-width:1.5;"/>
    <defs>
     <path d="M -1 3 
L 1 3 
L 1 1 
L 3 1 
L 3 -1 
L 1 -1 
L 1 -3 
L -1 -3 
L -1 -1 
L -3 -1 
L -3 1 
L -1 1 
z
" id="m0c57f89a28" style="stroke:#ffffff;stroke-linejoin:miter;stroke-width:0.75;"/>
    </defs>
    <g clip-path="url(#p233c08fd7e)">
     <use style="fill:#c44e52;stroke:#ffffff;stroke-linejoin:miter;stroke-width:0.75;" x="225" xlink:href="#m0c57f89a28" y="302.23402"/>
     <use style="fill:#c44e52;stroke:#ffffff;stroke-linejoin:miter;stroke-width:0.75;" x="307.058824" xlink:href="#m0c57f89a28" y="302.056134"/>
     <use style="fill:#c44e52;stroke:#ffffff;stroke-linejoin:miter;stroke-width:0.75;" x="389.117647" xlink:href="#m0c57f89a28" y="302.585244"/>
     <use style="fill:#c44e52;stroke:#ffffff;stroke-linejoin:miter;stroke-width:0.75;" x="471.176471" xlink:href="#m0c57f89a28" y="301.834984"/>
     <use style="fill:#c44e52;stroke:#ffffff;stroke-linejoin:miter;stroke-width:0.75;" x="553.235294" xlink:href="#m0c57f89a28" y="300.254122"/>
     <use style="fill:#c44e52;stroke:#ffffff;stroke-linejoin:miter;stroke-width:0.75;" x="635.294118" xlink:href="#m0c57f89a28" y="297.330523"/>
     <use style="fill:#c44e52;stroke:#ffffff;stroke-linejoin:miter;stroke-width:0.75;" x="717.352941" xlink:href="#m0c57f89a28" y="301.940116"/>
     <use style="fill:#c44e52;stroke:#ffffff;stroke-linejoin:miter;stroke-width:0.75;" x="799.411765" xlink:href="#m0c57f89a28" y="301.203853"/>
     <use style="fill:#c44e52;stroke:#ffffff;stroke-linejoin:miter;stroke-width:0.75;" x="881.470588" xlink:href="#m0c57f89a28" y="302.445194"/>
     <use style="fill:#c44e52;stroke:#ffffff;stroke-linejoin:miter;stroke-width:0.75;" x="963.529412" xlink:href="#m0c57f89a28" y="299.455513"/>
     <use style="fill:#c44e52;stroke:#ffffff;stroke-linejoin:miter;stroke-width:0.75;" x="1045.588235" xlink:href="#m0c57f89a28" y="302.498746"/>
     <use style="fill:#c44e52;stroke:#ffffff;stroke-linejoin:miter;stroke-width:0.75;" x="1127.647059" xlink:href="#m0c57f89a28" y="302.498746"/>
     <use style="fill:#c44e52;stroke:#ffffff;stroke-linejoin:miter;stroke-width:0.75;" x="1209.705882" xlink:href="#m0c57f89a28" y="302.645455"/>
     <use style="fill:#c44e52;stroke:#ffffff;stroke-linejoin:miter;stroke-width:0.75;" x="1291.764706" xlink:href="#m0c57f89a28" y="302.454733"/>
     <use style="fill:#c44e52;stroke:#ffffff;stroke-linejoin:miter;stroke-width:0.75;" x="1373.823529" xlink:href="#m0c57f89a28" y="301.311829"/>
     <use style="fill:#c44e52;stroke:#ffffff;stroke-linejoin:miter;stroke-width:0.75;" x="1455.882353" xlink:href="#m0c57f89a28" y="299.142849"/>
     <use style="fill:#c44e52;stroke:#ffffff;stroke-linejoin:miter;stroke-width:0.75;" x="1537.941176" xlink:href="#m0c57f89a28" y="302.406616"/>
     <use style="fill:#c44e52;stroke:#ffffff;stroke-linejoin:miter;stroke-width:0.75;" x="1620" xlink:href="#m0c57f89a28" y="293.143314"/>
    </g>
   </g>
   <g id="line2d_30">
    <path clip-path="url(#p233c08fd7e)" d="M 225 284.041555 
L 307.058824 283.32398 
L 389.117647 283.78114 
L 471.176471 286.23553 
L 553.235294 273.644653 
L 635.294118 232.162322 
L 717.352941 269.56314 
L 799.411765 258.309124 
L 881.470588 274.368722 
L 963.529412 239.954647 
L 1045.588235 289.074869 
L 1127.647059 290.707007 
L 1209.705882 285.113725 
L 1291.764706 293.776894 
L 1373.823529 258.253043 
L 1455.882353 223.799494 
L 1537.941176 273.610614 
L 1620 156.722052 
" style="fill:none;stroke:#8172b3;stroke-dasharray:7.5,1.5,1.5,1.5;stroke-dashoffset:0;stroke-width:1.5;"/>
    <defs>
     <path d="M 0 -3 
L -3 -0 
L -0 3 
L 3 0 
z
" id="m4ecdc124ed" style="stroke:#ffffff;stroke-linejoin:miter;stroke-width:0.75;"/>
    </defs>
    <g clip-path="url(#p233c08fd7e)">
     <use style="fill:#8172b3;stroke:#ffffff;stroke-linejoin:miter;stroke-width:0.75;" x="225" xlink:href="#m4ecdc124ed" y="284.041555"/>
     <use style="fill:#8172b3;stroke:#ffffff;stroke-linejoin:miter;stroke-width:0.75;" x="307.058824" xlink:href="#m4ecdc124ed" y="283.32398"/>
     <use style="fill:#8172b3;stroke:#ffffff;stroke-linejoin:miter;stroke-width:0.75;" x="389.117647" xlink:href="#m4ecdc124ed" y="283.78114"/>
     <use style="fill:#8172b3;stroke:#ffffff;stroke-linejoin:miter;stroke-width:0.75;" x="471.176471" xlink:href="#m4ecdc124ed" y="286.23553"/>
     <use style="fill:#8172b3;stroke:#ffffff;stroke-linejoin:miter;stroke-width:0.75;" x="553.235294" xlink:href="#m4ecdc124ed" y="273.644653"/>
     <use style="fill:#8172b3;stroke:#ffffff;stroke-linejoin:miter;stroke-width:0.75;" x="635.294118" xlink:href="#m4ecdc124ed" y="232.162322"/>
     <use style="fill:#8172b3;stroke:#ffffff;stroke-linejoin:miter;stroke-width:0.75;" x="717.352941" xlink:href="#m4ecdc124ed" y="269.56314"/>
     <use style="fill:#8172b3;stroke:#ffffff;stroke-linejoin:miter;stroke-width:0.75;" x="799.411765" xlink:href="#m4ecdc124ed" y="258.309124"/>
     <use style="fill:#8172b3;stroke:#ffffff;stroke-linejoin:miter;stroke-width:0.75;" x="881.470588" xlink:href="#m4ecdc124ed" y="274.368722"/>
     <use style="fill:#8172b3;stroke:#ffffff;stroke-linejoin:miter;stroke-width:0.75;" x="963.529412" xlink:href="#m4ecdc124ed" y="239.954647"/>
     <use style="fill:#8172b3;stroke:#ffffff;stroke-linejoin:miter;stroke-width:0.75;" x="1045.588235" xlink:href="#m4ecdc124ed" y="289.074869"/>
     <use style="fill:#8172b3;stroke:#ffffff;stroke-linejoin:miter;stroke-width:0.75;" x="1127.647059" xlink:href="#m4ecdc124ed" y="290.707007"/>
     <use style="fill:#8172b3;stroke:#ffffff;stroke-linejoin:miter;stroke-width:0.75;" x="1209.705882" xlink:href="#m4ecdc124ed" y="285.113725"/>
     <use style="fill:#8172b3;stroke:#ffffff;stroke-linejoin:miter;stroke-width:0.75;" x="1291.764706" xlink:href="#m4ecdc124ed" y="293.776894"/>
     <use style="fill:#8172b3;stroke:#ffffff;stroke-linejoin:miter;stroke-width:0.75;" x="1373.823529" xlink:href="#m4ecdc124ed" y="258.253043"/>
     <use style="fill:#8172b3;stroke:#ffffff;stroke-linejoin:miter;stroke-width:0.75;" x="1455.882353" xlink:href="#m4ecdc124ed" y="223.799494"/>
     <use style="fill:#8172b3;stroke:#ffffff;stroke-linejoin:miter;stroke-width:0.75;" x="1537.941176" xlink:href="#m4ecdc124ed" y="273.610614"/>
     <use style="fill:#8172b3;stroke:#ffffff;stroke-linejoin:miter;stroke-width:0.75;" x="1620" xlink:href="#m4ecdc124ed" y="156.722052"/>
    </g>
   </g>
   <g id="line2d_31">
    <path clip-path="url(#p233c08fd7e)" d="M 225 282.970072 
L 307.058824 283.182489 
L 389.117647 285.604288 
L 471.176471 287.402865 
L 553.235294 278.579328 
L 635.294118 248.924769 
L 717.352941 272.740279 
L 799.411765 261.684098 
L 881.470588 280.839857 
L 963.529412 246.096708 
L 1045.588235 288.52471 
L 1127.647059 290.780362 
L 1209.705882 287.46107 
L 1291.764706 294.473762 
L 1373.823529 254.336294 
L 1455.882353 220.684995 
L 1537.941176 276.072899 
L 1620 163.198656 
" style="fill:none;stroke:#937860;stroke-dasharray:4.5,1.875,1.875,1.875,1.875,1.875;stroke-dashoffset:0;stroke-width:1.5;"/>
    <defs>
     <path d="M 0 -3 
L -1.06066 -1.06066 
L -3 -0 
L -1.06066 1.06066 
L -0 3 
L 1.06066 1.06066 
L 3 0 
L 1.06066 -1.06066 
z
" id="m9e4f5cdb51" style="stroke:#ffffff;stroke-linejoin:bevel;stroke-width:0.75;"/>
    </defs>
    <g clip-path="url(#p233c08fd7e)">
     <use style="fill:#937860;stroke:#ffffff;stroke-linejoin:bevel;stroke-width:0.75;" x="225" xlink:href="#m9e4f5cdb51" y="282.970072"/>
     <use style="fill:#937860;stroke:#ffffff;stroke-linejoin:bevel;stroke-width:0.75;" x="307.058824" xlink:href="#m9e4f5cdb51" y="283.182489"/>
     <use style="fill:#937860;stroke:#ffffff;stroke-linejoin:bevel;stroke-width:0.75;" x="389.117647" xlink:href="#m9e4f5cdb51" y="285.604288"/>
     <use style="fill:#937860;stroke:#ffffff;stroke-linejoin:bevel;stroke-width:0.75;" x="471.176471" xlink:href="#m9e4f5cdb51" y="287.402865"/>
     <use style="fill:#937860;stroke:#ffffff;stroke-linejoin:bevel;stroke-width:0.75;" x="553.235294" xlink:href="#m9e4f5cdb51" y="278.579328"/>
     <use style="fill:#937860;stroke:#ffffff;stroke-linejoin:bevel;stroke-width:0.75;" x="635.294118" xlink:href="#m9e4f5cdb51" y="248.924769"/>
     <use style="fill:#937860;stroke:#ffffff;stroke-linejoin:bevel;stroke-width:0.75;" x="717.352941" xlink:href="#m9e4f5cdb51" y="272.740279"/>
     <use style="fill:#937860;stroke:#ffffff;stroke-linejoin:bevel;stroke-width:0.75;" x="799.411765" xlink:href="#m9e4f5cdb51" y="261.684098"/>
     <use style="fill:#937860;stroke:#ffffff;stroke-linejoin:bevel;stroke-width:0.75;" x="881.470588" xlink:href="#m9e4f5cdb51" y="280.839857"/>
     <use style="fill:#937860;stroke:#ffffff;stroke-linejoin:bevel;stroke-width:0.75;" x="963.529412" xlink:href="#m9e4f5cdb51" y="246.096708"/>
     <use style="fill:#937860;stroke:#ffffff;stroke-linejoin:bevel;stroke-width:0.75;" x="1045.588235" xlink:href="#m9e4f5cdb51" y="288.52471"/>
     <use style="fill:#937860;stroke:#ffffff;stroke-linejoin:bevel;stroke-width:0.75;" x="1127.647059" xlink:href="#m9e4f5cdb51" y="290.780362"/>
     <use style="fill:#937860;stroke:#ffffff;stroke-linejoin:bevel;stroke-width:0.75;" x="1209.705882" xlink:href="#m9e4f5cdb51" y="287.46107"/>
     <use style="fill:#937860;stroke:#ffffff;stroke-linejoin:bevel;stroke-width:0.75;" x="1291.764706" xlink:href="#m9e4f5cdb51" y="294.473762"/>
     <use style="fill:#937860;stroke:#ffffff;stroke-linejoin:bevel;stroke-width:0.75;" x="1373.823529" xlink:href="#m9e4f5cdb51" y="254.336294"/>
     <use style="fill:#937860;stroke:#ffffff;stroke-linejoin:bevel;stroke-width:0.75;" x="1455.882353" xlink:href="#m9e4f5cdb51" y="220.684995"/>
     <use style="fill:#937860;stroke:#ffffff;stroke-linejoin:bevel;stroke-width:0.75;" x="1537.941176" xlink:href="#m9e4f5cdb51" y="276.072899"/>
     <use style="fill:#937860;stroke:#ffffff;stroke-linejoin:bevel;stroke-width:0.75;" x="1620" xlink:href="#m9e4f5cdb51" y="163.198656"/>
    </g>
   </g>
   <g id="line2d_32">
    <path clip-path="url(#p233c08fd7e)" d="M 225 295.999173 
L 307.058824 295.64618 
L 389.117647 297.680137 
L 471.176471 295.572038 
L 553.235294 293.078734 
L 635.294118 280.093049 
L 717.352941 293.243171 
L 799.411765 288.542325 
L 881.470588 296.788567 
L 963.529412 278.879826 
L 1045.588235 297.950766 
L 1127.647059 298.537602 
L 1209.705882 298.02412 
L 1291.764706 298.985064 
L 1373.823529 285.620751 
L 1455.882353 270.711022 
L 1537.941176 294.876314 
L 1620 234.781092 
" style="fill:none;stroke:#da8bc3;stroke-dasharray:6,1.5,6,1.5,1.5,1.5;stroke-dashoffset:0;stroke-width:1.5;"/>
    <defs>
     <path d="M 0 -3 
L -3 3 
L 3 3 
z
" id="m605b2972a5" style="stroke:#ffffff;stroke-linejoin:miter;stroke-width:0.75;"/>
    </defs>
    <g clip-path="url(#p233c08fd7e)">
     <use style="fill:#da8bc3;stroke:#ffffff;stroke-linejoin:miter;stroke-width:0.75;" x="225" xlink:href="#m605b2972a5" y="295.999173"/>
     <use style="fill:#da8bc3;stroke:#ffffff;stroke-linejoin:miter;stroke-width:0.75;" x="307.058824" xlink:href="#m605b2972a5" y="295.64618"/>
     <use style="fill:#da8bc3;stroke:#ffffff;stroke-linejoin:miter;stroke-width:0.75;" x="389.117647" xlink:href="#m605b2972a5" y="297.680137"/>
     <use style="fill:#da8bc3;stroke:#ffffff;stroke-linejoin:miter;stroke-width:0.75;" x="471.176471" xlink:href="#m605b2972a5" y="295.572038"/>
     <use style="fill:#da8bc3;stroke:#ffffff;stroke-linejoin:miter;stroke-width:0.75;" x="553.235294" xlink:href="#m605b2972a5" y="293.078734"/>
     <use style="fill:#da8bc3;stroke:#ffffff;stroke-linejoin:miter;stroke-width:0.75;" x="635.294118" xlink:href="#m605b2972a5" y="280.093049"/>
     <use style="fill:#da8bc3;stroke:#ffffff;stroke-linejoin:miter;stroke-width:0.75;" x="717.352941" xlink:href="#m605b2972a5" y="293.243171"/>
     <use style="fill:#da8bc3;stroke:#ffffff;stroke-linejoin:miter;stroke-width:0.75;" x="799.411765" xlink:href="#m605b2972a5" y="288.542325"/>
     <use style="fill:#da8bc3;stroke:#ffffff;stroke-linejoin:miter;stroke-width:0.75;" x="881.470588" xlink:href="#m605b2972a5" y="296.788567"/>
     <use style="fill:#da8bc3;stroke:#ffffff;stroke-linejoin:miter;stroke-width:0.75;" x="963.529412" xlink:href="#m605b2972a5" y="278.879826"/>
     <use style="fill:#da8bc3;stroke:#ffffff;stroke-linejoin:miter;stroke-width:0.75;" x="1045.588235" xlink:href="#m605b2972a5" y="297.950766"/>
     <use style="fill:#da8bc3;stroke:#ffffff;stroke-linejoin:miter;stroke-width:0.75;" x="1127.647059" xlink:href="#m605b2972a5" y="298.537602"/>
     <use style="fill:#da8bc3;stroke:#ffffff;stroke-linejoin:miter;stroke-width:0.75;" x="1209.705882" xlink:href="#m605b2972a5" y="298.02412"/>
     <use style="fill:#da8bc3;stroke:#ffffff;stroke-linejoin:miter;stroke-width:0.75;" x="1291.764706" xlink:href="#m605b2972a5" y="298.985064"/>
     <use style="fill:#da8bc3;stroke:#ffffff;stroke-linejoin:miter;stroke-width:0.75;" x="1373.823529" xlink:href="#m605b2972a5" y="285.620751"/>
     <use style="fill:#da8bc3;stroke:#ffffff;stroke-linejoin:miter;stroke-width:0.75;" x="1455.882353" xlink:href="#m605b2972a5" y="270.711022"/>
     <use style="fill:#da8bc3;stroke:#ffffff;stroke-linejoin:miter;stroke-width:0.75;" x="1537.941176" xlink:href="#m605b2972a5" y="294.876314"/>
     <use style="fill:#da8bc3;stroke:#ffffff;stroke-linejoin:miter;stroke-width:0.75;" x="1620" xlink:href="#m605b2972a5" y="234.781092"/>
    </g>
   </g>
   <g id="line2d_33">
    <path clip-path="url(#p233c08fd7e)" d="M 225 269.996361 
L 307.058824 271.045594 
L 389.117647 274.585744 
L 471.176471 276.094358 
L 553.235294 259.323676 
L 635.294118 209.967069 
L 717.352941 250.525356 
L 799.411765 233.453413 
L 881.470588 264.291696 
L 963.529412 203.267175 
L 1045.588235 279.025301 
L 1127.647059 283.169831 
L 1209.705882 277.044729 
L 1291.764706 288.209286 
L 1373.823529 222.184614 
L 1455.882353 169.579903 
L 1537.941176 259.123555 
L 1620 55.554545 
" style="fill:none;stroke:#8c8c8c;stroke-dasharray:4.5,1.875,4.5,1.875,1.875,1.875;stroke-dashoffset:0;stroke-width:1.5;"/>
    <defs>
     <path d="M -2.12132 -2.12132 
L -1.5 -0 
L -2.12132 2.12132 
L -0 1.5 
L 2.12132 2.12132 
L 1.5 0 
L 2.12132 -2.12132 
L 0 -1.5 
z
" id="mbacf9f8cc3" style="stroke:#ffffff;stroke-linejoin:bevel;stroke-width:0.75;"/>
    </defs>
    <g clip-path="url(#p233c08fd7e)">
     <use style="fill:#8c8c8c;stroke:#ffffff;stroke-linejoin:bevel;stroke-width:0.75;" x="225" xlink:href="#mbacf9f8cc3" y="269.996361"/>
     <use style="fill:#8c8c8c;stroke:#ffffff;stroke-linejoin:bevel;stroke-width:0.75;" x="307.058824" xlink:href="#mbacf9f8cc3" y="271.045594"/>
     <use style="fill:#8c8c8c;stroke:#ffffff;stroke-linejoin:bevel;stroke-width:0.75;" x="389.117647" xlink:href="#mbacf9f8cc3" y="274.585744"/>
     <use style="fill:#8c8c8c;stroke:#ffffff;stroke-linejoin:bevel;stroke-width:0.75;" x="471.176471" xlink:href="#mbacf9f8cc3" y="276.094358"/>
     <use style="fill:#8c8c8c;stroke:#ffffff;stroke-linejoin:bevel;stroke-width:0.75;" x="553.235294" xlink:href="#mbacf9f8cc3" y="259.323676"/>
     <use style="fill:#8c8c8c;stroke:#ffffff;stroke-linejoin:bevel;stroke-width:0.75;" x="635.294118" xlink:href="#mbacf9f8cc3" y="209.967069"/>
     <use style="fill:#8c8c8c;stroke:#ffffff;stroke-linejoin:bevel;stroke-width:0.75;" x="717.352941" xlink:href="#mbacf9f8cc3" y="250.525356"/>
     <use style="fill:#8c8c8c;stroke:#ffffff;stroke-linejoin:bevel;stroke-width:0.75;" x="799.411765" xlink:href="#mbacf9f8cc3" y="233.453413"/>
     <use style="fill:#8c8c8c;stroke:#ffffff;stroke-linejoin:bevel;stroke-width:0.75;" x="881.470588" xlink:href="#mbacf9f8cc3" y="264.291696"/>
     <use style="fill:#8c8c8c;stroke:#ffffff;stroke-linejoin:bevel;stroke-width:0.75;" x="963.529412" xlink:href="#mbacf9f8cc3" y="203.267175"/>
     <use style="fill:#8c8c8c;stroke:#ffffff;stroke-linejoin:bevel;stroke-width:0.75;" x="1045.588235" xlink:href="#mbacf9f8cc3" y="279.025301"/>
     <use style="fill:#8c8c8c;stroke:#ffffff;stroke-linejoin:bevel;stroke-width:0.75;" x="1127.647059" xlink:href="#mbacf9f8cc3" y="283.169831"/>
     <use style="fill:#8c8c8c;stroke:#ffffff;stroke-linejoin:bevel;stroke-width:0.75;" x="1209.705882" xlink:href="#mbacf9f8cc3" y="277.044729"/>
     <use style="fill:#8c8c8c;stroke:#ffffff;stroke-linejoin:bevel;stroke-width:0.75;" x="1291.764706" xlink:href="#mbacf9f8cc3" y="288.209286"/>
     <use style="fill:#8c8c8c;stroke:#ffffff;stroke-linejoin:bevel;stroke-width:0.75;" x="1373.823529" xlink:href="#mbacf9f8cc3" y="222.184614"/>
     <use style="fill:#8c8c8c;stroke:#ffffff;stroke-linejoin:bevel;stroke-width:0.75;" x="1455.882353" xlink:href="#mbacf9f8cc3" y="169.579903"/>
     <use style="fill:#8c8c8c;stroke:#ffffff;stroke-linejoin:bevel;stroke-width:0.75;" x="1537.941176" xlink:href="#mbacf9f8cc3" y="259.123555"/>
     <use style="fill:#8c8c8c;stroke:#ffffff;stroke-linejoin:bevel;stroke-width:0.75;" x="1620" xlink:href="#mbacf9f8cc3" y="55.554545"/>
    </g>
   </g>
   <g id="line2d_34">
    <path clip-path="url(#p233c08fd7e)" d="M 225 272.859791 
L 307.058824 273.996172 
L 389.117647 280.806961 
L 471.176471 278.893126 
L 553.235294 269.876038 
L 635.294118 235.463416 
L 717.352941 260.906743 
L 799.411765 245.043723 
L 881.470588 277.237981 
L 963.529412 219.698042 
L 1045.588235 281.739418 
L 1127.647059 285.18708 
L 1209.705882 283.353217 
L 1291.764706 289.757066 
L 1373.823529 224.153448 
L 1455.882353 175.403608 
L 1537.941176 267.248199 
L 1620 82.005636 
" style="fill:none;stroke:#ccb974;stroke-dasharray:6,1.5,1.5,1.5,1.5,1.5;stroke-dashoffset:0;stroke-width:1.5;"/>
    <defs>
     <path d="M -0 3 
L 3 -3 
L -3 -3 
z
" id="md17fbef2e6" style="stroke:#ffffff;stroke-linejoin:miter;stroke-width:0.75;"/>
    </defs>
    <g clip-path="url(#p233c08fd7e)">
     <use style="fill:#ccb974;stroke:#ffffff;stroke-linejoin:miter;stroke-width:0.75;" x="225" xlink:href="#md17fbef2e6" y="272.859791"/>
     <use style="fill:#ccb974;stroke:#ffffff;stroke-linejoin:miter;stroke-width:0.75;" x="307.058824" xlink:href="#md17fbef2e6" y="273.996172"/>
     <use style="fill:#ccb974;stroke:#ffffff;stroke-linejoin:miter;stroke-width:0.75;" x="389.117647" xlink:href="#md17fbef2e6" y="280.806961"/>
     <use style="fill:#ccb974;stroke:#ffffff;stroke-linejoin:miter;stroke-width:0.75;" x="471.176471" xlink:href="#md17fbef2e6" y="278.893126"/>
     <use style="fill:#ccb974;stroke:#ffffff;stroke-linejoin:miter;stroke-width:0.75;" x="553.235294" xlink:href="#md17fbef2e6" y="269.876038"/>
     <use style="fill:#ccb974;stroke:#ffffff;stroke-linejoin:miter;stroke-width:0.75;" x="635.294118" xlink:href="#md17fbef2e6" y="235.463416"/>
     <use style="fill:#ccb974;stroke:#ffffff;stroke-linejoin:miter;stroke-width:0.75;" x="717.352941" xlink:href="#md17fbef2e6" y="260.906743"/>
     <use style="fill:#ccb974;stroke:#ffffff;stroke-linejoin:miter;stroke-width:0.75;" x="799.411765" xlink:href="#md17fbef2e6" y="245.043723"/>
     <use style="fill:#ccb974;stroke:#ffffff;stroke-linejoin:miter;stroke-width:0.75;" x="881.470588" xlink:href="#md17fbef2e6" y="277.237981"/>
     <use style="fill:#ccb974;stroke:#ffffff;stroke-linejoin:miter;stroke-width:0.75;" x="963.529412" xlink:href="#md17fbef2e6" y="219.698042"/>
     <use style="fill:#ccb974;stroke:#ffffff;stroke-linejoin:miter;stroke-width:0.75;" x="1045.588235" xlink:href="#md17fbef2e6" y="281.739418"/>
     <use style="fill:#ccb974;stroke:#ffffff;stroke-linejoin:miter;stroke-width:0.75;" x="1127.647059" xlink:href="#md17fbef2e6" y="285.18708"/>
     <use style="fill:#ccb974;stroke:#ffffff;stroke-linejoin:miter;stroke-width:0.75;" x="1209.705882" xlink:href="#md17fbef2e6" y="283.353217"/>
     <use style="fill:#ccb974;stroke:#ffffff;stroke-linejoin:miter;stroke-width:0.75;" x="1291.764706" xlink:href="#md17fbef2e6" y="289.757066"/>
     <use style="fill:#ccb974;stroke:#ffffff;stroke-linejoin:miter;stroke-width:0.75;" x="1373.823529" xlink:href="#md17fbef2e6" y="224.153448"/>
     <use style="fill:#ccb974;stroke:#ffffff;stroke-linejoin:miter;stroke-width:0.75;" x="1455.882353" xlink:href="#md17fbef2e6" y="175.403608"/>
     <use style="fill:#ccb974;stroke:#ffffff;stroke-linejoin:miter;stroke-width:0.75;" x="1537.941176" xlink:href="#md17fbef2e6" y="267.248199"/>
     <use style="fill:#ccb974;stroke:#ffffff;stroke-linejoin:miter;stroke-width:0.75;" x="1620" xlink:href="#md17fbef2e6" y="82.005636"/>
    </g>
   </g>
   <g id="line2d_35"/>
   <g id="line2d_36"/>
   <g id="line2d_37"/>
   <g id="line2d_38"/>
   <g id="line2d_39"/>
   <g id="line2d_40"/>
   <g id="line2d_41"/>
   <g id="line2d_42"/>
   <g id="line2d_43"/>
   <g id="patch_3">
    <path d="M 225 315 
L 225 43.2 
" style="fill:none;stroke:#ffffff;stroke-linecap:square;stroke-linejoin:miter;stroke-width:1.25;"/>
   </g>
   <g id="patch_4">
    <path d="M 1620 315 
L 1620 43.2 
" style="fill:none;stroke:#ffffff;stroke-linecap:square;stroke-linejoin:miter;stroke-width:1.25;"/>
   </g>
   <g id="patch_5">
    <path d="M 225 315 
L 1620 315 
" style="fill:none;stroke:#ffffff;stroke-linecap:square;stroke-linejoin:miter;stroke-width:1.25;"/>
   </g>
   <g id="patch_6">
    <path d="M 225 43.2 
L 1620 43.2 
" style="fill:none;stroke:#ffffff;stroke-linecap:square;stroke-linejoin:miter;stroke-width:1.25;"/>
   </g>
   <g id="legend_1">
    <g id="patch_7">
     <path d="M 232.7 214.427188 
L 314.112031 214.427188 
Q 316.312031 214.427188 316.312031 212.227188 
L 316.312031 50.9 
Q 316.312031 48.7 314.112031 48.7 
L 232.7 48.7 
Q 230.5 48.7 230.5 50.9 
L 230.5 212.227188 
Q 230.5 214.427188 232.7 214.427188 
z
" style="fill:#eaeaf2;opacity:0.8;stroke:#cccccc;stroke-linejoin:miter;"/>
    </g>
    <g id="text_27">
     <!-- Model -->
     <defs>
      <path d="M 45.40625 46.390625 
L 45.40625 75.984375 
L 54.390625 75.984375 
L 54.390625 0 
L 45.40625 0 
L 45.40625 8.203125 
Q 42.578125 3.328125 38.25 0.953125 
Q 33.9375 -1.421875 27.875 -1.421875 
Q 17.96875 -1.421875 11.734375 6.484375 
Q 5.515625 14.40625 5.515625 27.296875 
Q 5.515625 40.1875 11.734375 48.09375 
Q 17.96875 56 27.875 56 
Q 33.9375 56 38.25 53.625 
Q 42.578125 51.265625 45.40625 46.390625 
z
M 14.796875 27.296875 
Q 14.796875 17.390625 18.875 11.75 
Q 22.953125 6.109375 30.078125 6.109375 
Q 37.203125 6.109375 41.296875 11.75 
Q 45.40625 17.390625 45.40625 27.296875 
Q 45.40625 37.203125 41.296875 42.84375 
Q 37.203125 48.484375 30.078125 48.484375 
Q 22.953125 48.484375 18.875 42.84375 
Q 14.796875 37.203125 14.796875 27.296875 
z
" id="DejaVuSans-100"/>
     </defs>
     <g style="fill:#262626;" transform="translate(255.390078 62.218125)scale(0.12 -0.12)">
      <use xlink:href="#DejaVuSans-77"/>
      <use x="86.279297" xlink:href="#DejaVuSans-111"/>
      <use x="147.460938" xlink:href="#DejaVuSans-100"/>
      <use x="210.9375" xlink:href="#DejaVuSans-101"/>
      <use x="272.460938" xlink:href="#DejaVuSans-108"/>
     </g>
    </g>
    <g id="line2d_44">
     <path d="M 234.9 74.722031 
L 256.9 74.722031 
" style="fill:none;stroke:#4c72b0;stroke-linecap:round;stroke-width:1.5;"/>
    </g>
    <g id="line2d_45">
     <defs>
      <path d="M 0 3 
C 0.795609 3 1.55874 2.683901 2.12132 2.12132 
C 2.683901 1.55874 3 0.795609 3 0 
C 3 -0.795609 2.683901 -1.55874 2.12132 -2.12132 
C 1.55874 -2.683901 0.795609 -3 0 -3 
C -0.795609 -3 -1.55874 -2.683901 -2.12132 -2.12132 
C -2.683901 -1.55874 -3 -0.795609 -3 0 
C -3 0.795609 -2.683901 1.55874 -2.12132 2.12132 
C -1.55874 2.683901 -0.795609 3 0 3 
z
" id="m7a70616eba" style="stroke:#4c72b0;"/>
     </defs>
     <g>
      <use style="fill:#4c72b0;stroke:#4c72b0;" x="245.9" xlink:href="#m7a70616eba" y="74.722031"/>
     </g>
    </g>
    <g id="text_28">
     <!-- BPR -->
     <defs>
      <path d="M 19.671875 34.8125 
L 19.671875 8.109375 
L 35.5 8.109375 
Q 43.453125 8.109375 47.28125 11.40625 
Q 51.125 14.703125 51.125 21.484375 
Q 51.125 28.328125 47.28125 31.5625 
Q 43.453125 34.8125 35.5 34.8125 
z
M 19.671875 64.796875 
L 19.671875 42.828125 
L 34.28125 42.828125 
Q 41.5 42.828125 45.03125 45.53125 
Q 48.578125 48.25 48.578125 53.8125 
Q 48.578125 59.328125 45.03125 62.0625 
Q 41.5 64.796875 34.28125 64.796875 
z
M 9.8125 72.90625 
L 35.015625 72.90625 
Q 46.296875 72.90625 52.390625 68.21875 
Q 58.5 63.53125 58.5 54.890625 
Q 58.5 48.1875 55.375 44.234375 
Q 52.25 40.28125 46.1875 39.3125 
Q 53.46875 37.75 57.5 32.78125 
Q 61.53125 27.828125 61.53125 20.40625 
Q 61.53125 10.640625 54.890625 5.3125 
Q 48.25 0 35.984375 0 
L 9.8125 0 
z
" id="DejaVuSans-66"/>
     </defs>
     <g style="fill:#262626;" transform="translate(265.7 78.572031)scale(0.11 -0.11)">
      <use xlink:href="#DejaVuSans-66"/>
      <use x="68.603516" xlink:href="#DejaVuSans-80"/>
      <use x="128.90625" xlink:href="#DejaVuSans-82"/>
     </g>
    </g>
    <g id="line2d_46">
     <path d="M 234.9 90.867969 
L 256.9 90.867969 
" style="fill:none;stroke:#dd8452;stroke-dasharray:6,2.25;stroke-dashoffset:0;stroke-width:1.5;"/>
    </g>
    <g id="line2d_47">
     <defs>
      <path d="M -1.5 3 
L 0 1.5 
L 1.5 3 
L 3 1.5 
L 1.5 0 
L 3 -1.5 
L 1.5 -3 
L 0 -1.5 
L -1.5 -3 
L -3 -1.5 
L -1.5 0 
L -3 1.5 
z
" id="m9897f7f037" style="stroke:#dd8452;stroke-linejoin:miter;"/>
     </defs>
     <g>
      <use style="fill:#dd8452;stroke:#dd8452;stroke-linejoin:miter;" x="245.9" xlink:href="#m9897f7f037" y="90.867969"/>
     </g>
    </g>
    <g id="text_29">
     <!-- MF -->
     <g style="fill:#262626;" transform="translate(265.7 94.717969)scale(0.11 -0.11)">
      <use xlink:href="#DejaVuSans-77"/>
      <use x="86.279297" xlink:href="#DejaVuSans-70"/>
     </g>
    </g>
    <g id="line2d_48">
     <path d="M 234.9 107.013906 
L 256.9 107.013906 
" style="fill:none;stroke:#55a868;stroke-dasharray:1.5,1.5;stroke-dashoffset:0;stroke-width:1.5;"/>
    </g>
    <g id="line2d_49">
     <defs>
      <path d="M -2.12132 -2.12132 
L -2.12132 2.12132 
L 2.12132 2.12132 
L 2.12132 -2.12132 
z
" id="m6d958179ce" style="stroke:#55a868;stroke-linejoin:miter;"/>
     </defs>
     <g>
      <use style="fill:#55a868;stroke:#55a868;stroke-linejoin:miter;" x="245.9" xlink:href="#m6d958179ce" y="107.013906"/>
     </g>
    </g>
    <g id="text_30">
     <!-- MostPop -->
     <defs>
      <path d="M 18.109375 8.203125 
L 18.109375 -20.796875 
L 9.078125 -20.796875 
L 9.078125 54.6875 
L 18.109375 54.6875 
L 18.109375 46.390625 
Q 20.953125 51.265625 25.265625 53.625 
Q 29.59375 56 35.59375 56 
Q 45.5625 56 51.78125 48.09375 
Q 58.015625 40.1875 58.015625 27.296875 
Q 58.015625 14.40625 51.78125 6.484375 
Q 45.5625 -1.421875 35.59375 -1.421875 
Q 29.59375 -1.421875 25.265625 0.953125 
Q 20.953125 3.328125 18.109375 8.203125 
z
M 48.6875 27.296875 
Q 48.6875 37.203125 44.609375 42.84375 
Q 40.53125 48.484375 33.40625 48.484375 
Q 26.265625 48.484375 22.1875 42.84375 
Q 18.109375 37.203125 18.109375 27.296875 
Q 18.109375 17.390625 22.1875 11.75 
Q 26.265625 6.109375 33.40625 6.109375 
Q 40.53125 6.109375 44.609375 11.75 
Q 48.6875 17.390625 48.6875 27.296875 
z
" id="DejaVuSans-112"/>
     </defs>
     <g style="fill:#262626;" transform="translate(265.7 110.863906)scale(0.11 -0.11)">
      <use xlink:href="#DejaVuSans-77"/>
      <use x="86.279297" xlink:href="#DejaVuSans-111"/>
      <use x="147.460938" xlink:href="#DejaVuSans-115"/>
      <use x="199.560547" xlink:href="#DejaVuSans-116"/>
      <use x="238.769531" xlink:href="#DejaVuSans-80"/>
      <use x="295.447266" xlink:href="#DejaVuSans-111"/>
      <use x="356.628906" xlink:href="#DejaVuSans-112"/>
     </g>
    </g>
    <g id="line2d_50">
     <path d="M 234.9 123.159844 
L 256.9 123.159844 
" style="fill:none;stroke:#c44e52;stroke-dasharray:4.5,1.875,2.25,1.875;stroke-dashoffset:0;stroke-width:1.5;"/>
    </g>
    <g id="line2d_51">
     <defs>
      <path d="M -1 3 
L 1 3 
L 1 1 
L 3 1 
L 3 -1 
L 1 -1 
L 1 -3 
L -1 -3 
L -1 -1 
L -3 -1 
L -3 1 
L -1 1 
z
" id="mf75b3b60e8" style="stroke:#c44e52;stroke-linejoin:miter;"/>
     </defs>
     <g>
      <use style="fill:#c44e52;stroke:#c44e52;stroke-linejoin:miter;" x="245.9" xlink:href="#mf75b3b60e8" y="123.159844"/>
     </g>
    </g>
    <g id="text_31">
     <!-- NMF -->
     <g style="fill:#262626;" transform="translate(265.7 127.009844)scale(0.11 -0.11)">
      <use xlink:href="#DejaVuSans-78"/>
      <use x="74.804688" xlink:href="#DejaVuSans-77"/>
      <use x="161.083984" xlink:href="#DejaVuSans-70"/>
     </g>
    </g>
    <g id="line2d_52">
     <path d="M 234.9 139.305781 
L 256.9 139.305781 
" style="fill:none;stroke:#8172b3;stroke-dasharray:7.5,1.5,1.5,1.5;stroke-dashoffset:0;stroke-width:1.5;"/>
    </g>
    <g id="line2d_53">
     <defs>
      <path d="M 0 -3 
L -3 -0 
L -0 3 
L 3 0 
z
" id="m8894c2f287" style="stroke:#8172b3;stroke-linejoin:miter;"/>
     </defs>
     <g>
      <use style="fill:#8172b3;stroke:#8172b3;stroke-linejoin:miter;" x="245.9" xlink:href="#m8894c2f287" y="139.305781"/>
     </g>
    </g>
    <g id="text_32">
     <!-- NeuMF -->
     <defs>
      <path d="M 8.5 21.578125 
L 8.5 54.6875 
L 17.484375 54.6875 
L 17.484375 21.921875 
Q 17.484375 14.15625 20.5 10.265625 
Q 23.53125 6.390625 29.59375 6.390625 
Q 36.859375 6.390625 41.078125 11.03125 
Q 45.3125 15.671875 45.3125 23.6875 
L 45.3125 54.6875 
L 54.296875 54.6875 
L 54.296875 0 
L 45.3125 0 
L 45.3125 8.40625 
Q 42.046875 3.421875 37.71875 1 
Q 33.40625 -1.421875 27.6875 -1.421875 
Q 18.265625 -1.421875 13.375 4.4375 
Q 8.5 10.296875 8.5 21.578125 
z
M 31.109375 56 
z
" id="DejaVuSans-117"/>
     </defs>
     <g style="fill:#262626;" transform="translate(265.7 143.155781)scale(0.11 -0.11)">
      <use xlink:href="#DejaVuSans-78"/>
      <use x="74.804688" xlink:href="#DejaVuSans-101"/>
      <use x="136.328125" xlink:href="#DejaVuSans-117"/>
      <use x="199.707031" xlink:href="#DejaVuSans-77"/>
      <use x="285.986328" xlink:href="#DejaVuSans-70"/>
     </g>
    </g>
    <g id="line2d_54">
     <path d="M 234.9 155.451719 
L 256.9 155.451719 
" style="fill:none;stroke:#937860;stroke-dasharray:4.5,1.875,1.875,1.875,1.875,1.875;stroke-dashoffset:0;stroke-width:1.5;"/>
    </g>
    <g id="line2d_55">
     <defs>
      <path d="M 0 -3 
L -1.06066 -1.06066 
L -3 -0 
L -1.06066 1.06066 
L -0 3 
L 1.06066 1.06066 
L 3 0 
L 1.06066 -1.06066 
z
" id="m5d12120961" style="stroke:#937860;stroke-linejoin:bevel;"/>
     </defs>
     <g>
      <use style="fill:#937860;stroke:#937860;stroke-linejoin:bevel;" x="245.9" xlink:href="#m5d12120961" y="155.451719"/>
     </g>
    </g>
    <g id="text_33">
     <!-- PF -->
     <g style="fill:#262626;" transform="translate(265.7 159.301719)scale(0.11 -0.11)">
      <use xlink:href="#DejaVuSans-80"/>
      <use x="60.302734" xlink:href="#DejaVuSans-70"/>
     </g>
    </g>
    <g id="line2d_56">
     <path d="M 234.9 171.597656 
L 256.9 171.597656 
" style="fill:none;stroke:#da8bc3;stroke-dasharray:6,1.5,6,1.5,1.5,1.5;stroke-dashoffset:0;stroke-width:1.5;"/>
    </g>
    <g id="line2d_57">
     <defs>
      <path d="M 0 -3 
L -3 3 
L 3 3 
z
" id="m026c791d49" style="stroke:#da8bc3;stroke-linejoin:miter;"/>
     </defs>
     <g>
      <use style="fill:#da8bc3;stroke:#da8bc3;stroke-linejoin:miter;" x="245.9" xlink:href="#m026c791d49" y="171.597656"/>
     </g>
    </g>
    <g id="text_34">
     <!-- PMF -->
     <g style="fill:#262626;" transform="translate(265.7 175.447656)scale(0.11 -0.11)">
      <use xlink:href="#DejaVuSans-80"/>
      <use x="60.302734" xlink:href="#DejaVuSans-77"/>
      <use x="146.582031" xlink:href="#DejaVuSans-70"/>
     </g>
    </g>
    <g id="line2d_58">
     <path d="M 234.9 187.743594 
L 256.9 187.743594 
" style="fill:none;stroke:#8c8c8c;stroke-dasharray:4.5,1.875,4.5,1.875,1.875,1.875;stroke-dashoffset:0;stroke-width:1.5;"/>
    </g>
    <g id="line2d_59">
     <defs>
      <path d="M -2.12132 -2.12132 
L -1.5 -0 
L -2.12132 2.12132 
L -0 1.5 
L 2.12132 2.12132 
L 1.5 0 
L 2.12132 -2.12132 
L 0 -1.5 
z
" id="m7196c46ccc" style="stroke:#8c8c8c;stroke-linejoin:bevel;"/>
     </defs>
     <g>
      <use style="fill:#8c8c8c;stroke:#8c8c8c;stroke-linejoin:bevel;" x="245.9" xlink:href="#m7196c46ccc" y="187.743594"/>
     </g>
    </g>
    <g id="text_35">
     <!-- VAECF -->
     <defs>
      <path d="M 28.609375 0 
L 0.78125 72.90625 
L 11.078125 72.90625 
L 34.1875 11.53125 
L 57.328125 72.90625 
L 67.578125 72.90625 
L 39.796875 0 
z
" id="DejaVuSans-86"/>
      <path d="M 9.8125 72.90625 
L 55.90625 72.90625 
L 55.90625 64.59375 
L 19.671875 64.59375 
L 19.671875 43.015625 
L 54.390625 43.015625 
L 54.390625 34.71875 
L 19.671875 34.71875 
L 19.671875 8.296875 
L 56.78125 8.296875 
L 56.78125 0 
L 9.8125 0 
z
" id="DejaVuSans-69"/>
     </defs>
     <g style="fill:#262626;" transform="translate(265.7 191.593594)scale(0.11 -0.11)">
      <use xlink:href="#DejaVuSans-86"/>
      <use x="62.033203" xlink:href="#DejaVuSans-65"/>
      <use x="130.441406" xlink:href="#DejaVuSans-69"/>
      <use x="193.625" xlink:href="#DejaVuSans-67"/>
      <use x="263.449219" xlink:href="#DejaVuSans-70"/>
     </g>
    </g>
    <g id="line2d_60">
     <path d="M 234.9 203.889531 
L 256.9 203.889531 
" style="fill:none;stroke:#ccb974;stroke-dasharray:6,1.5,1.5,1.5,1.5,1.5;stroke-dashoffset:0;stroke-width:1.5;"/>
    </g>
    <g id="line2d_61">
     <defs>
      <path d="M -0 3 
L 3 -3 
L -3 -3 
z
" id="m293e5f2d5b" style="stroke:#ccb974;stroke-linejoin:miter;"/>
     </defs>
     <g>
      <use style="fill:#ccb974;stroke:#ccb974;stroke-linejoin:miter;" x="245.9" xlink:href="#m293e5f2d5b" y="203.889531"/>
     </g>
    </g>
    <g id="text_36">
     <!-- WMF -->
     <defs>
      <path d="M 3.328125 72.90625 
L 13.28125 72.90625 
L 28.609375 11.28125 
L 43.890625 72.90625 
L 54.984375 72.90625 
L 70.3125 11.28125 
L 85.59375 72.90625 
L 95.609375 72.90625 
L 77.296875 0 
L 64.890625 0 
L 49.515625 63.28125 
L 33.984375 0 
L 21.578125 0 
z
" id="DejaVuSans-87"/>
     </defs>
     <g style="fill:#262626;" transform="translate(265.7 207.739531)scale(0.11 -0.11)">
      <use xlink:href="#DejaVuSans-87"/>
      <use x="98.876953" xlink:href="#DejaVuSans-77"/>
      <use x="185.15625" xlink:href="#DejaVuSans-70"/>
     </g>
    </g>
   </g>
  </g>
 </g>
 <defs>
  <clipPath id="p233c08fd7e">
   <rect height="271.8" width="1395" x="225" y="43.2"/>
  </clipPath>
 </defs>
</svg>
